<svg width="22" height="22" viewBox="0 0 22 22" fill="none" xmlns="http://www.w3.org/2000/svg">
<path d="M20.08 8.14439L14.0739 5.57035V1.97165C14.0739 1.35234 13.7913 0.781461 13.2992 0.405377C13.0592 0.220626 12.7796 0.0942329 12.4823 0.0361914C12.1851 -0.0218501 11.8784 -0.00994866 11.5866 0.0709545L2.28128 2.60784C1.62661 2.78767 1.04897 3.17723 0.636917 3.7168C0.224862 4.25638 0.00112408 4.9162 0 5.59512V18.5126C0.000596485 19.3337 0.327026 20.1209 0.907604 20.7015C1.48818 21.2821 2.27544 21.6085 3.0965 21.6091H18.8605C19.6816 21.6085 20.4688 21.2821 21.0494 20.7015C21.63 20.1209 21.9564 19.3337 21.957 18.5126V10.9898C21.9572 10.3838 21.7795 9.79111 21.4461 9.28513C21.1126 8.77915 20.638 8.38212 20.0811 8.14326L20.08 8.14439ZM12.3849 19.9212H3.09538C2.31956 19.9212 1.68788 19.2896 1.68788 18.5137V5.59624C1.68788 4.96343 2.11463 4.40493 2.72492 4.23829L12.0313 1.7014C12.0726 1.69022 12.1159 1.68867 12.1579 1.69687C12.1999 1.70507 12.2394 1.7228 12.2734 1.7487C12.3083 1.77461 12.3367 1.80842 12.356 1.84737C12.3754 1.88631 12.3853 1.92928 12.3849 1.97277V19.9212ZM20.2669 18.5137C20.2669 19.2896 19.6352 19.9212 18.8594 19.9212H14.0739V7.40798L19.4134 9.69714C19.9314 9.91896 20.2669 10.4268 20.2669 10.9909V18.5137ZM9.56989 7.25372C9.56989 7.47769 9.48091 7.6925 9.32254 7.85087C9.16416 8.00925 8.94936 8.09822 8.72539 8.09822H5.34738C5.12341 8.09822 4.9086 8.00925 4.75023 7.85087C4.59185 7.6925 4.50288 7.47769 4.50288 7.25372C4.50288 7.02974 4.59185 6.81494 4.75023 6.65657C4.9086 6.49819 5.12341 6.40922 5.34738 6.40922H8.72539C8.94936 6.40922 9.16416 6.49819 9.32254 6.65657C9.48091 6.81494 9.56989 7.02974 9.56989 7.25372ZM9.56989 10.6317C9.56989 10.8557 9.48091 11.0705 9.32254 11.2289C9.16416 11.3872 8.94936 11.4762 8.72539 11.4762H5.34738C5.12341 11.4762 4.9086 11.3872 4.75023 11.2289C4.59185 11.0705 4.50288 10.8557 4.50288 10.6317C4.50288 10.4077 4.59185 10.1929 4.75023 10.0346C4.9086 9.8762 5.12341 9.78722 5.34738 9.78722H8.72539C8.94936 9.78722 9.16416 9.8762 9.32254 10.0346C9.48091 10.1929 9.56989 10.4077 9.56989 10.6317ZM18.5779 16.2617C18.5779 16.4857 18.4889 16.7005 18.3306 16.8589C18.1722 17.0173 17.9574 17.1062 17.7334 17.1062H16.6074C16.3834 17.1062 16.1686 17.0173 16.0102 16.8589C15.8519 16.7005 15.7629 16.4857 15.7629 16.2617C15.7629 16.0378 15.8519 15.823 16.0102 15.6646C16.1686 15.5062 16.3834 15.4172 16.6074 15.4172H17.7334C17.9574 15.4172 18.1722 15.5062 18.3306 15.6646C18.4889 15.823 18.5779 16.0378 18.5779 16.2617ZM18.5779 12.8837C18.5779 13.1077 18.4889 13.3225 18.3306 13.4809C18.1722 13.6393 17.9574 13.7282 17.7334 13.7282H16.6074C16.3834 13.7282 16.1686 13.6393 16.0102 13.4809C15.8519 13.3225 15.7629 13.1077 15.7629 12.8837C15.7629 12.6598 15.8519 12.4449 16.0102 12.2866C16.1686 12.1282 16.3834 12.0392 16.6074 12.0392H17.7334C17.9574 12.0392 18.1722 12.1282 18.3306 12.2866C18.4889 12.4449 18.5779 12.6598 18.5779 12.8837Z" fill="white"/>
</svg>
