<svg width="26" height="23" viewBox="0 0 26 23" fill="none" xmlns="http://www.w3.org/2000/svg">
<path d="M4.78491 14.6382H7.80176C8.35716 14.6382 8.80737 14.1932 8.80737 13.6442C8.80737 13.0952 8.35716 12.6502 7.80176 12.6502H4.78491C4.22951 12.6502 3.7793 13.0952 3.7793 13.6442C3.7793 14.1932 4.22951 14.6382 4.78491 14.6382ZM4.78491 10.6622H7.80176C8.35716 10.6622 8.80737 10.2172 8.80737 9.66822C8.80737 9.11923 8.35716 8.67421 7.80176 8.67421H4.78491C4.22951 8.67421 3.7793 9.11923 3.7793 9.66822C3.7793 10.2172 4.22951 10.6622 4.78491 10.6622ZM10.6899 13.6442C10.6899 14.1932 11.1401 14.6382 11.6956 14.6382C13.7983 14.6382 15.7753 13.8288 17.2622 12.3591L24.6162 5.08923C25.7952 3.92391 25.7954 2.03754 24.6162 0.872016C23.44 -0.290672 21.5261 -0.290672 20.3498 0.872016L12.9957 8.14187C11.5089 9.61166 10.6899 11.5657 10.6899 13.6442ZM21.772 2.27779C22.164 1.89023 22.8021 1.89023 23.1941 2.27779C23.5871 2.66615 23.5873 3.295 23.1941 3.68351L15.84 10.9534C14.9993 11.7844 13.9482 12.3318 12.8054 12.5472C13.0233 11.4176 13.5772 10.3786 14.4178 9.54764L21.772 2.27779Z" fill="#BBC4D0"/>
<path d="M3.01684 22.6664C3.75879 22.6668 4.4748 22.3972 5.02767 21.9093L6.41778 20.6832H16.6932C19.4657 20.6832 21.7213 18.459 21.7213 15.7251V13.5007C21.7213 12.9531 21.2711 12.5091 20.7157 12.5091C20.1602 12.5091 19.71 12.9531 19.71 13.5007V15.7251C19.71 17.3654 18.3567 18.7 16.6932 18.7H6.03368C5.78631 18.6999 5.54762 18.7898 5.36324 18.9525L3.68698 20.431C3.50271 20.5936 3.26409 20.6834 3.01684 20.6832C2.46235 20.6832 2.01123 20.2384 2.01123 19.6916V7.7921C2.01123 6.15176 3.36458 4.81723 5.02807 4.81723H13.4626C14.018 4.81723 14.4682 4.37328 14.4682 3.82561C14.4682 3.27793 14.018 2.83398 13.4626 2.83398H5.02807C2.25554 2.83398 0 5.05819 0 7.7921V19.6916C0 21.3319 1.35336 22.6664 3.01684 22.6664Z" fill="#676D75"/>
</svg>
