<svg width="24" height="24" viewBox="0 0 24 24" fill="none" xmlns="http://www.w3.org/2000/svg">
<path fill-rule="evenodd" clip-rule="evenodd" d="M23.9998 14.2323V6.41838C23.9998 5.60462 23.6761 4.82323 23.1012 4.24723C22.525 3.67212 21.7442 3.34897 20.9301 3.34863H3.06975C2.25599 3.34863 1.4746 3.67235 0.898599 4.24723C0.323491 4.82348 0.00034182 5.60425 0 6.41838V18.6974C0 19.5111 0.323719 20.2925 0.898599 20.8685C1.47484 21.4436 2.25562 21.7668 3.06975 21.7671H11.9999C12.222 21.7671 12.4349 21.6789 12.5919 21.5219C12.7489 21.3649 12.8371 21.152 12.8371 20.9299C12.8371 20.7079 12.7489 20.4949 12.5919 20.3379C12.4349 20.1809 12.222 20.0927 11.9999 20.0927H3.06975C2.69986 20.0921 2.34529 19.9449 2.08375 19.6834C1.8222 19.4218 1.675 19.0673 1.67441 18.6974V6.41838C1.675 6.04849 1.8222 5.69393 2.08375 5.43238C2.34529 5.17083 2.69986 5.02363 3.06975 5.02304H20.9301C21.3 5.02363 21.6546 5.17083 21.9161 5.43238C22.1777 5.69393 22.3249 6.04849 22.3254 6.41838V14.2323C22.3254 14.4543 22.4136 14.6673 22.5707 14.8243C22.7277 14.9813 22.9406 15.0695 23.1626 15.0695C23.3847 15.0695 23.5976 14.9813 23.7546 14.8243C23.9116 14.6673 23.9998 14.4543 23.9998 14.2323Z" fill="#676D75"/>
<path fill-rule="evenodd" clip-rule="evenodd" d="M6.69785 4.18602V2.51161C6.69785 2.28947 6.78603 2.07627 6.94343 1.91999C7.02098 1.84207 7.11318 1.78027 7.21471 1.73812C7.31625 1.69597 7.42512 1.67432 7.53505 1.67441H16.4652C16.6874 1.67441 16.9006 1.76259 17.0569 1.91999C17.2142 2.07627 17.3024 2.28947 17.3024 2.51161V4.18602C17.3024 4.40806 17.3906 4.62101 17.5476 4.77801C17.7046 4.93502 17.9176 5.02322 18.1396 5.02322C18.3617 5.02322 18.5746 4.93502 18.7316 4.77801C18.8886 4.62101 18.9768 4.40806 18.9768 4.18602V2.51161C18.9768 1.84549 18.7122 1.20665 18.2412 0.735634C17.7702 0.264615 17.1313 0 16.4652 0H7.53505C6.86893 0 6.23009 0.264615 5.75907 0.735634C5.28805 1.20665 5.02344 1.84549 5.02344 2.51161V4.18602C5.02344 4.40806 5.11164 4.62101 5.26865 4.77801C5.42565 4.93502 5.6386 5.02322 5.86064 5.02322C6.08268 5.02322 6.29563 4.93502 6.45263 4.77801C6.60964 4.62101 6.69785 4.40806 6.69785 4.18602Z" fill="#676D75"/>
<path fill-rule="evenodd" clip-rule="evenodd" d="M0.856066 5.61128L2.29048 9.22466C2.51723 9.7963 2.91046 10.2867 3.41918 10.6322C3.92791 10.9777 4.52869 11.1625 5.14367 11.1625H18.856C19.4709 11.1625 20.0717 10.9777 20.5804 10.6322C21.0892 10.2867 21.4824 9.7963 21.7091 9.22466L23.1436 5.61128C23.2256 5.40493 23.2222 5.17446 23.1343 4.97056C23.0464 4.76666 22.8811 4.60604 22.6747 4.52403C22.4684 4.44203 22.2379 4.44535 22.034 4.53327C21.8301 4.6212 21.6695 4.78652 21.5875 4.99287L20.1531 8.60736C19.9421 9.1387 19.4275 9.4881 18.856 9.4881H5.14367C4.57213 9.4881 4.05753 9.1387 3.84656 8.60736L2.41215 4.99287C2.33014 4.78652 2.16952 4.6212 1.96562 4.53327C1.76172 4.44535 1.53125 4.44203 1.3249 4.52403C1.11855 4.60604 0.95323 4.76666 0.865306 4.97056C0.777383 5.17446 0.774059 5.40493 0.856066 5.61128Z" fill="#676D75"/>
<path fill-rule="evenodd" clip-rule="evenodd" d="M15.6274 9.20927V11.4418C15.6274 11.6639 15.7156 11.8768 15.8727 12.0338C16.0297 12.1908 16.2426 12.279 16.4646 12.279C16.6867 12.279 16.8996 12.1908 17.0566 12.0338C17.2136 11.8768 17.3019 11.6639 17.3019 11.4418V9.20927C17.3019 8.98723 17.2136 8.77429 17.0566 8.61728C16.8996 8.46028 16.6867 8.37207 16.4646 8.37207C16.2426 8.37207 16.0297 8.46028 15.8727 8.61728C15.7156 8.77429 15.6274 8.98723 15.6274 9.20927ZM6.69727 9.20927V11.4418C6.69727 11.6639 6.78547 11.8768 6.94248 12.0338C7.09948 12.1908 7.31243 12.279 7.53447 12.279C7.75651 12.279 7.96946 12.1908 8.12646 12.0338C8.28347 11.8768 8.37167 11.6639 8.37167 11.4418V9.20927C8.37167 8.98723 8.28347 8.77429 8.12646 8.61728C7.96946 8.46028 7.75651 8.37207 7.53447 8.37207C7.31243 8.37207 7.09948 8.46028 6.94248 8.61728C6.78547 8.77429 6.69727 8.98723 6.69727 9.20927ZM13.3949 18.1395C13.3949 20.7582 15.5203 22.8836 18.1391 22.8836C20.7578 22.8836 22.8832 20.7582 22.8832 18.1395C22.8832 15.5207 20.7578 13.3953 18.1391 13.3953C15.5203 13.3953 13.3949 15.5207 13.3949 18.1395ZM15.0693 18.1395C15.0909 17.3396 15.4238 16.5798 15.9971 16.0217C16.5704 15.4637 17.3389 15.1514 18.1391 15.1514C18.9392 15.1514 19.7077 15.4637 20.281 16.0217C20.8543 16.5798 21.1872 17.3396 21.2088 18.1395C21.1872 18.9393 20.8543 19.6991 20.281 20.2572C19.7077 20.8152 18.9392 21.1275 18.1391 21.1275C17.3389 21.1275 16.5704 20.8152 15.9971 20.2572C15.4238 19.6991 15.0909 18.9393 15.0693 18.1395Z" fill="#BBC4D0"/>
<path fill-rule="evenodd" clip-rule="evenodd" d="M20.3408 21.5221L22.5733 23.7546C22.7302 23.9115 22.943 23.9997 23.1649 23.9997C23.3868 23.9997 23.5996 23.9115 23.7566 23.7546C23.9135 23.5977 24.0016 23.3849 24.0016 23.163C24.0016 22.9411 23.9135 22.7283 23.7566 22.5714L21.524 20.3388C21.4463 20.2611 21.3541 20.1995 21.2526 20.1574C21.1511 20.1154 21.0423 20.0938 20.9324 20.0938C20.8225 20.0937 20.7137 20.1154 20.6122 20.1574C20.5107 20.1995 20.4185 20.2611 20.3408 20.3388C20.2631 20.4165 20.2014 20.5087 20.1594 20.6102C20.1173 20.7118 20.0957 20.8206 20.0957 20.9304C20.0957 21.0403 20.1173 21.1491 20.1594 21.2506C20.2014 21.3521 20.2631 21.4444 20.3408 21.5221Z" fill="#BBC4D0"/>
</svg>
