<svg width="68" height="34" viewBox="0 0 68 34" fill="none" xmlns="http://www.w3.org/2000/svg">
<path d="M9.3502 25.0044C8.32728 25.184 7.28636 25.2379 6.20958 25.3813L2.92526 15.762V25.7942C1.90234 25.9018 0.969133 26.0454 0 26.189V7.81152H2.72797L6.4608 18.2387V7.81152H9.3502V25.0044ZM15.0034 14.5415C16.1162 14.5415 17.8211 14.4877 18.844 14.4877V17.3591C17.5698 17.3591 16.0803 17.3591 15.0034 17.413V21.6844C16.6905 21.5767 18.3775 21.433 20.0823 21.3791V24.1428L12.1319 24.7711V7.81152H20.0823V10.683H15.0034V14.5415ZM30.7606 10.6831H27.7815V23.8918C26.8123 23.8918 25.8432 23.8918 24.9101 23.9276V10.6831H21.931V7.81152H30.7607L30.7606 10.6831ZM35.4267 14.3442H39.3571V17.2156H35.4267V23.7303H32.6089V7.81152H40.6313V10.683H35.4267V14.3442ZM45.2974 21.2177C46.9306 21.2535 48.5816 21.3793 50.1789 21.4689V24.3045C47.6126 24.1429 45.0462 23.9816 42.426 23.9276V7.81152H45.2974V21.2177ZM52.6017 24.502C53.5169 24.5559 54.4861 24.6098 55.4193 24.7173V7.81152H52.6017V24.502ZM68 7.81152L64.3568 16.5516L68 26.189C66.9231 26.0454 65.8463 25.848 64.7695 25.6685L62.7057 20.3564L60.6061 25.2379C59.565 25.0583 58.56 25.0044 57.5193 24.8608L61.2163 16.4438L57.8781 7.81152H60.9648L62.8492 12.6392L64.8593 7.81152H68Z" fill="#FF8800"/>
</svg>
