<svg width="16" height="17" viewBox="0 0 16 17" fill="none" xmlns="http://www.w3.org/2000/svg">
<path d="M2.8393 11.2156C2.09384 9.9589 1.83277 8.47332 2.10512 7.03779C2.37747 5.60226 3.1645 4.31553 4.31843 3.41922C5.47235 2.5229 6.91379 2.07866 8.37208 2.16992C9.83036 2.26117 11.2052 2.88165 12.2384 3.91482C13.2715 4.948 13.892 6.32281 13.9833 7.78109C14.0745 9.23938 13.6303 10.6808 12.734 11.8347C11.8377 12.9887 10.551 13.7757 9.11543 14.0481C7.67991 14.3204 6.19433 14.0594 4.93766 13.3139L4.93767 13.3139L2.86539 13.9059C2.77965 13.9304 2.68892 13.9316 2.6026 13.9092C2.51629 13.8868 2.43752 13.8418 2.37447 13.7787C2.31142 13.7157 2.26637 13.6369 2.24401 13.5506C2.22164 13.4643 2.22276 13.3735 2.24726 13.2878L2.83934 11.2155L2.8393 11.2156Z" stroke="#0B63E5" stroke-width="1.5" stroke-linecap="round" stroke-linejoin="round"/>
<path d="M8 8.90234C8.41421 8.90234 8.75 8.56656 8.75 8.15234C8.75 7.73813 8.41421 7.40234 8 7.40234C7.58579 7.40234 7.25 7.73813 7.25 8.15234C7.25 8.56656 7.58579 8.90234 8 8.90234Z" fill="#0B63E5"/>
<path d="M5 8.90234C5.41421 8.90234 5.75 8.56656 5.75 8.15234C5.75 7.73813 5.41421 7.40234 5 7.40234C4.58579 7.40234 4.25 7.73813 4.25 8.15234C4.25 8.56656 4.58579 8.90234 5 8.90234Z" fill="#0B63E5"/>
<path d="M11 8.90234C11.4142 8.90234 11.75 8.56656 11.75 8.15234C11.75 7.73813 11.4142 7.40234 11 7.40234C10.5858 7.40234 10.25 7.73813 10.25 8.15234C10.25 8.56656 10.5858 8.90234 11 8.90234Z" fill="#0B63E5"/>
</svg>
