<svg width="24" height="24" viewBox="0 0 24 24" fill="none" xmlns="http://www.w3.org/2000/svg">
<path d="M13.4275 23.9989C12.6722 23.9989 11.8992 23.9155 11.1171 23.7442C11.0193 23.7229 10.9266 23.6826 10.8443 23.6255C10.762 23.5684 10.6919 23.4956 10.6378 23.4113C10.5837 23.3271 10.5467 23.233 10.529 23.1344C10.5114 23.0358 10.5133 22.9347 10.5347 22.8369C10.6241 22.4258 11.033 22.1577 11.4419 22.2545C13.9855 22.8072 16.4046 22.2932 18.2018 20.8424L14.9946 17.6346L13.9809 18.6483C13.0536 19.5763 11.5439 19.577 10.6151 18.6483L5.35227 13.3854C4.42427 12.4574 4.42427 10.9476 5.35227 10.0195L6.36597 9.00583L3.15802 5.79798C0.372411 9.23301 1.2148 14.6411 5.28744 18.713C6.45978 19.8861 7.74529 20.8074 9.10907 21.4517C9.29196 21.538 9.43307 21.6935 9.50137 21.8839C9.56966 22.0742 9.55955 22.2839 9.47325 22.4668C9.29297 22.8474 8.83946 23.0121 8.45811 22.831C6.93494 22.1115 5.5049 21.089 4.209 19.7914C-0.710507 14.8728 -1.40617 8.14933 2.59049 4.15201C2.8765 3.866 3.38292 3.866 3.66893 4.15201L7.98363 8.46671C8.05447 8.5375 8.11067 8.62156 8.14901 8.71408C8.18736 8.8066 8.20709 8.90577 8.20709 9.00592C8.20709 9.10608 8.18736 9.20525 8.14901 9.29777C8.11067 9.39029 8.05447 9.47435 7.98363 9.54514L6.43071 11.0981C6.35112 11.1772 6.28801 11.2713 6.24506 11.375C6.2021 11.4787 6.18014 11.5899 6.18045 11.7021C6.18045 11.9307 6.26911 12.1452 6.43071 12.3069L11.6935 17.5697C12.0168 17.893 12.5791 17.8937 12.9024 17.5697L14.4553 16.0168C14.5261 15.946 14.6102 15.8898 14.7027 15.8514C14.7952 15.8131 14.8944 15.7934 14.9945 15.7934C15.0947 15.7934 15.1938 15.8131 15.2864 15.8514C15.3789 15.8898 15.4629 15.946 15.5337 16.0168L19.8484 20.3315C19.9193 20.4023 19.9755 20.4864 20.0138 20.5789C20.0522 20.6714 20.0719 20.7706 20.0719 20.8707C20.0719 20.9709 20.0522 21.0701 20.0138 21.1626C19.9755 21.2551 19.9193 21.3392 19.8484 21.41C18.1556 23.1037 15.8928 23.9989 13.4275 23.9989Z" fill="#676D75"/>
<path d="M12.5595 15.2537C12.445 15.2537 12.332 15.228 12.2288 15.1785C12.0994 15.1161 11.9903 15.0185 11.9139 14.8969C11.8375 14.7753 11.7969 14.6346 11.7968 14.491V12.8062C10.0167 12.3303 8.74609 10.729 8.74609 8.83418V4.13147C8.74609 1.85313 10.5992 0 12.8776 0H19.8683C22.1467 0 23.9998 1.85313 23.9998 4.13147V8.83418C23.9998 11.1125 22.1467 12.9656 19.8683 12.9656H15.687L13.0362 15.0869C12.9008 15.195 12.7327 15.2538 12.5595 15.2537ZM12.8776 1.52537C11.4409 1.52537 10.2715 2.69476 10.2715 4.13147V8.83418C10.2715 10.1748 11.2866 11.2832 12.6318 11.412C12.8207 11.4298 12.9961 11.5175 13.1238 11.6579C13.2515 11.7982 13.3222 11.9812 13.3222 12.1709V12.9039L14.9429 11.6071C15.0783 11.4991 15.2464 11.4403 15.4196 11.4403H19.8683C21.305 11.4403 22.4744 10.2709 22.4744 8.83418V4.13147C22.4744 2.69476 21.305 1.52537 19.8683 1.52537H12.8776Z" fill="#676D75"/>
<path d="M16.3721 6.86424C16.7933 6.86424 17.1347 6.52277 17.1347 6.10155C17.1347 5.68033 16.7933 5.33887 16.3721 5.33887C15.9508 5.33887 15.6094 5.68033 15.6094 6.10155C15.6094 6.52277 15.9508 6.86424 16.3721 6.86424Z" fill="#BBC4D0"/>
<path d="M19.4248 6.86424C19.846 6.86424 20.1875 6.52277 20.1875 6.10155C20.1875 5.68033 19.846 5.33887 19.4248 5.33887C19.0036 5.33887 18.6621 5.68033 18.6621 6.10155C18.6621 6.52277 19.0036 6.86424 19.4248 6.86424Z" fill="#BBC4D0"/>
<path d="M13.3232 6.86424C13.7445 6.86424 14.0859 6.52277 14.0859 6.10155C14.0859 5.68033 13.7445 5.33887 13.3232 5.33887C12.902 5.33887 12.5605 5.68033 12.5605 6.10155C12.5605 6.52277 12.902 6.86424 13.3232 6.86424Z" fill="#BBC4D0"/>
</svg>
