<svg width="50" height="50" viewBox="0 0 50 50" fill="none" xmlns="http://www.w3.org/2000/svg">
<rect width="50" height="49.4186" rx="10" fill="#0C487B"/>
<path d="M34.7938 13.8903C33.3903 13.517 31.9532 14.1018 31.2235 15.3403C31.1164 15.5214 31.0029 15.6985 30.883 15.8714C28.8539 15.5189 27.2596 13.8511 27.0986 11.7571C27.0875 11.6154 27.0398 11.4789 26.9602 11.3611C26.8806 11.2433 26.7718 11.1482 26.6443 11.0851C26.3872 10.9569 26.078 10.9745 25.8353 11.1315C23.8438 12.4197 23.0475 14.8757 23.8975 17.1043C24.2339 17.9862 24.8499 18.7561 25.659 19.3328C24.3188 19.6276 22.9138 19.5988 21.5744 19.2319C21.2516 19.1438 20.8999 19.2639 20.6988 19.5363C20.6006 19.6696 20.545 19.8296 20.5392 19.9951C20.5335 20.1607 20.578 20.3241 20.6668 20.4639C22.1512 22.7958 24.6945 24.1472 27.3669 24.1472C31.2143 24.1472 34.5962 21.3928 35.2616 17.5625H36.1788C36.3983 17.5625 36.6089 17.4471 36.7627 17.2901C36.9173 17.134 37.0014 16.8944 36.9983 16.6749C36.9767 15.3306 36.1115 14.238 34.7938 13.8903ZM27.8794 34.0465C25.9243 34.2203 24.3351 34.401 22.9995 34.6189C18.9434 35.2809 17.3043 36.4072 15.4365 38.7034C15.1248 39.0806 14.5505 39.0971 14.2225 38.7525L9.24381 33.722C8.96442 33.4426 8.91728 32.9993 9.1433 32.6752C9.76951 31.7769 10.4635 30.9485 11.2166 30.2026C12.7067 28.5308 14.2571 27.3396 15.7172 26.5322C16.6385 26.0227 17.6778 25.7652 18.7306 25.7652H23.6011C25.0899 25.7652 26.3472 26.7569 26.7484 28.1156C26.8777 28.5537 26.5807 29.016 26.1248 29.0447C26.1071 29.0458 26.0892 29.0464 26.0711 29.0464H18.9171C18.4709 29.0464 18.0913 29.3948 18.0782 29.8408C18.0644 30.3124 18.4302 30.687 18.8982 30.687H27.101C27.3472 30.687 27.5767 30.5721 27.7408 30.3917C27.9508 30.1744 28.9507 28.6908 30.8566 27.0869C32.0916 26.0475 35.0574 24.1247 36.1788 24.1247C36.8843 24.1247 37.2615 24.9614 36.7858 25.4863L29.3486 33.6892C29.2173 33.8533 29.004 33.9517 28.7908 33.9681C28.4784 33.9942 28.1747 34.0203 27.8794 34.0465Z" fill="white"/>
</svg>
