<svg width="50" height="50" viewBox="0 0 50 50" fill="none" xmlns="http://www.w3.org/2000/svg">
<rect width="50" height="49.4186" rx="10" fill="#0C487B"/>
<path d="M15.9219 20.9531C14.1122 20.9531 12.6406 19.4815 12.6406 17.6719C12.6406 15.8622 14.1122 14.3906 15.9219 14.3906C17.7315 14.3906 19.2031 15.8622 19.2031 17.6719C19.2031 19.4815 17.7315 20.9531 15.9219 20.9531ZM34.0781 20.9531C32.2685 20.9531 30.7969 19.4815 30.7969 17.6719C30.7969 15.8622 32.2685 14.3906 34.0781 14.3906C35.8878 14.3906 37.3594 15.8622 37.3594 17.6719C37.3594 19.4815 35.8878 20.9531 34.0781 20.9531ZM25 19.2031C22.7385 19.2031 20.8984 17.3631 20.8984 15.1016C20.8984 12.8401 22.7385 11 25 11C27.2615 11 29.1016 12.8401 29.1016 15.1016C29.1016 17.3631 27.2615 19.2031 25 19.2031ZM25.8203 19.286V24.9453C25.8203 25.3987 25.4534 25.7656 25 25.7656C24.5466 25.7656 24.1797 25.3987 24.1797 24.9453V19.286C21.4043 19.6884 19.2578 22.0603 19.2578 24.9453V29.8672C19.2578 30.3206 19.6247 30.6875 20.0781 30.6875H21.9158L22.5423 38.2486C22.5775 38.6731 22.9332 39 23.3594 39H26.6406C27.0668 39 27.4225 38.6731 27.4577 38.2486L28.0842 30.6875H29.9219C30.3753 30.6875 30.7422 30.3206 30.7422 29.8672V24.9453C30.7422 22.0603 28.5957 19.6884 25.8203 19.286ZM17.5625 29.9766V25.0547C17.5625 23.8251 17.8934 22.6825 18.4272 21.6618C17.6906 21.2221 16.8403 20.9531 15.9219 20.9531C13.2078 20.9531 11 23.1609 11 25.875V29.9766C11 30.43 11.3669 30.7969 11.8203 30.7969H12.7183L13.4649 38.2614C13.5066 38.6804 13.8599 39 14.2812 39H17.5625C17.9839 39 18.3371 38.6804 18.3788 38.2614L18.9851 32.1997C18.1476 31.8066 17.5625 30.9613 17.5625 29.9766ZM39 25.875C39 23.1609 36.7922 20.9531 34.0781 20.9531C33.1597 20.9531 32.3094 21.2221 31.5728 21.6618C32.1066 22.6825 32.4375 23.8251 32.4375 25.0547V29.9766C32.4375 30.9613 31.8524 31.8066 31.0149 32.1997L31.6212 38.2614C31.6629 38.6804 32.0161 39 32.4375 39H35.7188C36.1401 39 36.4934 38.6804 36.5351 38.2614L37.2817 30.7969H38.1797C38.6331 30.7969 39 30.43 39 29.9766V25.875Z" fill="white"/>
</svg>
