<svg width="23" height="21" viewBox="0 0 23 21" fill="none" xmlns="http://www.w3.org/2000/svg">
<path d="M9.21197 3.20699C9.04249 3.2075 8.87714 3.15465 8.73937 3.05593C8.6016 2.9572 8.49841 2.81762 8.44441 2.65697C8.39041 2.49631 8.38835 2.32273 8.43852 2.16084C8.48869 1.99895 8.58855 1.85696 8.72394 1.755L10.8272 0.163629C10.9118 0.0996185 11.0082 0.0528973 11.1108 0.0261328C11.2135 -0.000631694 11.3204 -0.00691536 11.4255 0.00764054C11.5305 0.0221964 11.6317 0.0573067 11.7232 0.110967C11.8147 0.164627 11.8948 0.235787 11.9588 0.320382C12.0228 0.404978 12.0695 0.501352 12.0963 0.604004C12.1231 0.706656 12.1293 0.813574 12.1148 0.918654C12.1002 1.02373 12.0651 1.12492 12.0115 1.21643C11.9578 1.30794 11.8866 1.38799 11.802 1.452L9.6988 3.04337C9.55336 3.15366 9.38206 3.20699 9.21197 3.20699Z" fill="#676D75"/>
<path d="M6.95504 4.91383C6.78569 4.91395 6.62059 4.86085 6.48306 4.76205C6.34552 4.66324 6.24251 4.52372 6.18857 4.36319C6.13463 4.20267 6.13249 4.02925 6.18245 3.86744C6.23241 3.70563 6.33195 3.56361 6.46701 3.46144L6.789 3.21742C6.9599 3.0881 7.17518 3.03196 7.38747 3.06135C7.59976 3.09075 7.79169 3.20328 7.92101 3.37418C8.05034 3.54508 8.10648 3.76036 8.07709 3.97265C8.04769 4.18495 7.93516 4.37687 7.76426 4.50619L7.44227 4.75021C7.30204 4.85641 7.13095 4.91387 6.95504 4.91383Z" fill="#BBC4D0"/>
<path d="M0.81017 9.56249C0.64058 9.56311 0.475102 9.51031 0.337221 9.41157C0.199339 9.31282 0.0960605 9.17316 0.0420423 9.0124C-0.011976 8.85165 -0.0139894 8.67796 0.0362878 8.51599C0.086565 8.35402 0.186579 8.21201 0.322134 8.1101L4.53468 4.92332C4.70563 4.79404 4.92094 4.73797 5.13324 4.76745C5.34553 4.79692 5.53742 4.90952 5.6667 5.08047C5.79597 5.25143 5.85204 5.46674 5.82257 5.67903C5.79309 5.89133 5.68049 6.08322 5.50954 6.21249L1.2974 9.39887C1.15722 9.50517 0.986093 9.56264 0.81017 9.56249ZM8.08183 13.7354C7.86753 13.7354 7.66201 13.6503 7.51048 13.4988C7.35895 13.3473 7.27382 13.1417 7.27382 12.9274C7.27382 11.5906 8.361 10.5034 9.69785 10.5034C9.91214 10.5034 10.1177 10.5885 10.2692 10.7401C10.4207 10.8916 10.5059 11.0971 10.5059 11.3114C10.5059 11.5257 10.4207 11.7312 10.2692 11.8828C10.1177 12.0343 9.91214 12.1194 9.69785 12.1194C9.25223 12.1194 8.88984 12.4818 8.88984 12.9274C8.88984 13.1417 8.80471 13.3473 8.65318 13.4988C8.50165 13.6503 8.29613 13.7354 8.08183 13.7354Z" fill="#676D75"/>
<path d="M8.08144 21.008C7.86715 21.008 7.66163 20.9229 7.5101 20.7713C7.35857 20.6198 7.27344 20.4143 7.27344 20.2V12.9279C7.27344 12.7136 7.35857 12.5081 7.5101 12.3566C7.66163 12.205 7.86715 12.1199 8.08144 12.1199C8.29574 12.1199 8.50126 12.205 8.65279 12.3566C8.80432 12.5081 8.88945 12.7136 8.88945 12.9279V20.2C8.88945 20.4143 8.80432 20.6198 8.65279 20.7713C8.50126 20.9229 8.29574 21.008 8.08144 21.008ZM12.9295 12.1199H9.69746C9.48316 12.1199 9.27764 12.0348 9.12611 11.8833C8.97458 11.7317 8.88945 11.5262 8.88945 11.3119C8.88945 11.0976 8.97458 10.8921 9.12611 10.7406C9.27764 10.589 9.48316 10.5039 9.69746 10.5039H12.9295C13.1438 10.5039 13.3493 10.589 13.5008 10.7406C13.6524 10.8921 13.7375 11.0976 13.7375 11.3119C13.7375 11.5262 13.6524 11.7317 13.5008 11.8833C13.3493 12.0348 13.1438 12.1199 12.9295 12.1199Z" fill="#676D75"/>
<path d="M14.5471 13.7359C14.3328 13.7359 14.1273 13.6508 13.9757 13.4993C13.8242 13.3477 13.7391 13.1422 13.7391 12.9279C13.7391 12.4823 13.3767 12.1199 12.9311 12.1199C12.7168 12.1199 12.5112 12.0348 12.3597 11.8833C12.2082 11.7317 12.123 11.5262 12.123 11.3119C12.123 11.0976 12.2082 10.8921 12.3597 10.7406C12.5112 10.589 12.7168 10.5039 12.9311 10.5039C14.2679 10.5039 15.3551 11.5911 15.3551 12.9279C15.3551 13.1422 15.2699 13.3477 15.1184 13.4993C14.9669 13.6508 14.7614 13.7359 14.5471 13.7359Z" fill="#676D75"/>
<path d="M14.5459 21.0081C14.3316 21.0081 14.1261 20.923 13.9745 20.7714C13.823 20.6199 13.7379 20.4144 13.7379 20.2001V12.928C13.7379 12.7137 13.823 12.5082 13.9745 12.3567C14.1261 12.2051 14.3316 12.12 14.5459 12.12C14.7602 12.12 14.9657 12.2051 15.1172 12.3567C15.2688 12.5082 15.3539 12.7137 15.3539 12.928V20.2001C15.3539 20.4144 15.2688 20.6199 15.1172 20.7714C14.9657 20.923 14.7602 21.0081 14.5459 21.0081ZM3.23379 21.0081C3.01949 21.0081 2.81397 20.923 2.66244 20.7714C2.51091 20.6199 2.42578 20.4144 2.42578 20.2001V6.92129C2.42578 6.70699 2.51091 6.50147 2.66244 6.34994C2.81397 6.19841 3.01949 6.11328 3.23379 6.11328C3.44809 6.11328 3.6536 6.19841 3.80514 6.34994C3.95667 6.50147 4.0418 6.70699 4.0418 6.92129V20.2001C4.0418 20.4144 3.95667 20.6199 3.80514 20.7714C3.6536 20.923 3.44809 21.0081 3.23379 21.0081ZM19.3939 21.0081C19.1796 21.0081 18.9741 20.923 18.8226 20.7714C18.6711 20.6199 18.5859 20.4144 18.5859 20.2001V6.92129C18.5859 6.70699 18.6711 6.50147 18.8226 6.34994C18.9741 6.19841 19.1796 6.11328 19.3939 6.11328C19.6082 6.11328 19.8138 6.19841 19.9653 6.34994C20.1168 6.50147 20.2019 6.70699 20.2019 6.92129V20.2001C20.2019 20.4144 20.1168 20.6199 19.9653 20.7714C19.8138 20.923 19.6082 21.0081 19.3939 21.0081Z" fill="#676D75"/>
<path d="M21.8177 9.56277C21.6481 9.56277 21.4768 9.50944 21.3309 9.39915L10.8268 1.452C10.7422 1.38799 10.6711 1.30794 10.6174 1.21643C10.5637 1.12492 10.5286 1.02373 10.5141 0.918654C10.4995 0.813574 10.5058 0.706656 10.5326 0.604004C10.5593 0.501352 10.6061 0.404978 10.6701 0.320382C10.7341 0.235787 10.8141 0.164627 10.9056 0.110967C10.9972 0.0573069 11.0983 0.0221964 11.2034 0.00764049C11.3085 -0.00691541 11.4154 -0.000631562 11.5181 0.026133C11.6207 0.0528975 11.7171 0.0996186 11.8017 0.163629L22.3058 8.11078C22.4412 8.21275 22.541 8.35474 22.5912 8.51663C22.6414 8.67852 22.6393 8.8521 22.5853 9.01275C22.5313 9.17341 22.4281 9.31299 22.2903 9.41171C22.1526 9.51043 21.9872 9.56328 21.8177 9.56277ZM21.8181 21.0078H0.80996C0.595663 21.0078 0.390144 20.9227 0.238613 20.7711C0.0870822 20.6196 0.00195313 20.4141 0.00195312 20.1998C0.00195313 19.9855 0.0870822 19.78 0.238613 19.6284C0.390144 19.4769 0.595663 19.3918 0.80996 19.3918H21.8181C22.0324 19.3918 22.238 19.4769 22.3895 19.6284C22.541 19.78 22.6262 19.9855 22.6262 20.1998C22.6262 20.4141 22.541 20.6196 22.3895 20.7711C22.238 20.9227 22.0324 21.0078 21.8181 21.0078Z" fill="#676D75"/>
</svg>
