<svg width="17" height="17" viewBox="0 0 17 17" fill="none" xmlns="http://www.w3.org/2000/svg">
<path d="M10.4589 15.0158C8.70226 15.0158 5.93976 14.4349 5.25976 13.9533C5.10393 13.8399 5.01894 13.6699 5.01894 13.4857V7.94659C5.01894 7.77659 5.10394 7.60659 5.23144 7.50742C5.27394 7.47909 6.2656 6.69991 7.29977 6.11908C8.58893 5.41075 9.48144 4.4191 9.69394 3.79576C9.94894 3.03076 10.3173 1.98242 11.4789 1.98242C12.0314 1.98242 12.4848 2.29409 12.7256 2.83242C13.2073 3.93742 12.6973 5.46742 11.8473 6.67159C12.4139 6.79909 13.1223 6.98325 13.5473 7.11075C14.3264 7.35158 14.8364 7.91826 14.9498 8.61243C15.0489 9.32076 14.6948 10.0433 13.9439 10.5958C13.3914 12.0833 12.4423 14.4349 11.7481 14.8174C11.4789 14.9591 11.0114 15.0158 10.4589 15.0158ZM6.15227 13.1458C7.22894 13.5991 10.5439 14.0666 11.1673 13.8258C11.4931 13.5283 12.3289 11.6299 12.9098 10.0291C12.9523 9.91576 13.0231 9.8166 13.1223 9.74576C13.5898 9.4341 13.8306 9.06576 13.7881 8.7541C13.7456 8.4991 13.5189 8.28658 13.1789 8.17325C12.4706 7.94658 10.7139 7.56409 10.6856 7.56409C10.4873 7.52159 10.3314 7.37991 10.2606 7.18158C10.1898 6.98325 10.2464 6.77076 10.3881 6.6291C11.6631 5.25493 11.8898 3.85241 11.6489 3.28575C11.5781 3.11575 11.4931 3.11576 11.4506 3.11576C11.1673 3.11576 11.0398 3.31409 10.7423 4.16409C10.4023 5.15576 9.22643 6.34575 7.82393 7.11075C7.14393 7.47908 6.46393 7.97492 6.12393 8.22992V13.1458H6.15227ZM3.91393 13.5424V7.88991C3.91393 7.37991 3.5031 6.96908 2.9931 6.96908C2.4831 6.96908 2.07226 7.37991 2.07226 7.88991V13.5424C2.07226 14.0524 2.4831 14.4633 2.9931 14.4633C3.48893 14.4633 3.91393 14.0383 3.91393 13.5424Z" fill="#0B63E5"/>
</svg>
