<svg width="49" height="16" viewBox="0 0 49 16" fill="none" xmlns="http://www.w3.org/2000/svg">
<path fill-rule="evenodd" clip-rule="evenodd" d="M48.775 15.2428H32.2676V5.44824H48.775V15.2428Z" fill="#2E388B"/>
<path fill-rule="evenodd" clip-rule="evenodd" d="M21.7673 11.2312H0.888672V2.7832H21.7673V11.2312Z" fill="#E2982F"/>
<path fill-rule="evenodd" clip-rule="evenodd" d="M26.1619 12.1771H11.5605V0.822266H26.1619V12.1771Z" fill="#CF4037"/>
<path fill-rule="evenodd" clip-rule="evenodd" d="M41.3617 11.4945H26.1738V1.81152H41.3627V11.4945H41.3617Z" fill="#2B9969"/>
<path fill-rule="evenodd" clip-rule="evenodd" d="M5.02737 10.4384H1.65625V6.0169H2.75839V9.62803H5.02737V10.4384ZM8.9172 10.4384H5.65564V6.0169H8.87132V6.82595H6.75846V7.75313H8.77476V8.56321H6.75846V9.62631H8.91754L8.9172 10.4384ZM12.6646 6.82595H13.2415C13.6438 6.82595 13.8054 7.06562 13.8054 7.29262C13.8054 7.52544 13.6435 7.77196 13.2415 7.77196H12.6646V6.82595ZM11.5621 6.01553V10.4371H13.7147C15.0048 10.4371 15.277 9.64617 15.277 9.14047C15.2785 8.87112 15.1852 8.60983 15.0133 8.40243C14.8415 8.19502 14.6021 8.05473 14.3371 8.00615C14.5106 7.93101 14.6593 7.80831 14.766 7.65224C14.8727 7.49617 14.933 7.31309 14.9401 7.12417C14.9401 6.63148 14.5189 6.01553 13.475 6.01553H11.5621ZM12.6646 8.58341H13.4363C13.8253 8.58341 14.1105 8.75871 14.1105 9.08295C14.1105 9.46539 13.8965 9.62734 13.2888 9.62734H12.6646V8.58341ZM19.8286 8.22699C19.8385 8.50555 19.7649 8.78072 19.6173 9.01714C19.4696 9.25357 19.2547 9.44045 19 9.55379C18.7454 9.66714 18.4626 9.70177 18.1882 9.65323C17.9137 9.6047 17.66 9.47521 17.4596 9.28141C17.2593 9.08761 17.1214 8.83834 17.0638 8.56562C17.0062 8.2929 17.0314 8.00918 17.1362 7.7509C17.2411 7.49262 17.4207 7.27158 17.6521 7.11616C17.8835 6.96074 18.1561 6.87804 18.4348 6.87868C18.6176 6.86448 18.8014 6.88928 18.9739 6.95143C19.1464 7.01359 19.3038 7.11168 19.4356 7.23921C19.5674 7.36675 19.6705 7.52081 19.7383 7.69122C19.8061 7.86162 19.8369 8.04447 19.8286 8.22767V8.22699ZM20.9633 8.22699C20.9633 7.1656 20.1008 5.95801 18.4348 5.95801C16.7688 5.95801 15.9012 7.15635 15.9012 8.22699C15.9012 9.35686 16.8153 10.4963 18.4348 10.4963C20.0231 10.497 20.963 9.36268 20.963 8.22767L20.9633 8.22699ZM26.1432 6.01621V8.52521C26.1432 9.99027 25.1448 10.496 23.9325 10.496C22.6489 10.496 21.7217 9.89954 21.7217 8.53137V6.0169H22.8235V8.55842C22.8201 8.6997 22.8468 8.84008 22.9018 8.97028C22.9567 9.10048 23.0387 9.21753 23.1423 9.31369C23.2459 9.40984 23.3687 9.48292 23.5026 9.52807C23.6365 9.57323 23.7785 9.58945 23.9191 9.57564C24.0679 9.59066 24.2181 9.57286 24.3593 9.52349C24.5004 9.47412 24.629 9.39438 24.7359 9.2899C24.8429 9.18542 24.9256 9.05875 24.9783 8.91881C25.031 8.77887 25.0523 8.62909 25.0408 8.48001V6.01484H26.1429L26.1432 6.01621ZM28.0424 8.24171C28.0332 7.9627 28.1074 7.68729 28.2557 7.45076C28.404 7.21424 28.6195 7.0274 28.8747 6.91419C29.1299 6.80097 29.4131 6.76655 29.6879 6.81533C29.9628 6.86411 30.2168 6.99387 30.4175 7.18798C30.6181 7.38209 30.7562 7.6317 30.814 7.9048C30.8719 8.1779 30.8468 8.46206 30.7421 8.72083C30.6374 8.97961 30.4578 9.20121 30.2263 9.35723C29.9948 9.51325 29.722 9.59658 29.4428 9.59653C29.2592 9.61039 29.0747 9.58517 28.9015 9.52255C28.7283 9.45993 28.5703 9.36132 28.438 9.23321C28.3057 9.10511 28.202 8.95042 28.1339 8.77934C28.0657 8.60826 28.0345 8.42468 28.0424 8.24068V8.24171ZM31.9658 10.634C31.4071 10.7552 30.8231 10.6602 30.3316 10.3679C30.8005 10.2328 31.2135 9.95083 31.5101 9.56338C31.8066 9.17594 31.9709 8.70353 31.9788 8.21569C31.9788 7.19128 31.1229 5.95938 29.4565 5.95938C27.8747 5.95938 26.9085 7.11972 26.9085 8.25335C26.9212 8.76853 27.1072 9.26438 27.4365 9.6608C27.7657 10.0572 28.219 10.3311 28.7231 10.4381C29.4298 10.9979 30.2782 11.3504 31.1735 11.456L32.036 10.7237L31.9658 10.634ZM37.1516 6.0169V8.52589C37.1516 9.99095 36.1532 10.4967 34.9411 10.4967C33.6575 10.4967 32.7307 9.90022 32.7307 8.53205V6.0169H33.8339V8.55842C33.8305 8.69972 33.8571 8.84013 33.9121 8.97035C33.967 9.10058 34.049 9.21765 34.1526 9.31381C34.2561 9.40998 34.379 9.48305 34.5129 9.52819C34.6468 9.57333 34.7888 9.5895 34.9295 9.57564C35.0783 9.59067 35.2285 9.57287 35.3696 9.5235C35.5107 9.47412 35.6393 9.39438 35.7462 9.28989C35.8532 9.18541 35.9359 9.05873 35.9885 8.91879C36.0411 8.77885 36.0624 8.62907 36.0508 8.48001V6.01484H37.153L37.1516 6.0169ZM41.379 10.4384H38.1181V6.0169H40.9918V6.82595H39.2203V7.75313H41.0089V8.56321H39.2203V9.62631H41.379V10.4384ZM46.2145 6.82595H44.6138V10.4371H43.5121V6.82595H41.9104V6.0169H46.2145V6.82595Z" fill="white"/>
<path fill-rule="evenodd" clip-rule="evenodd" d="M41.4499 10.475H41.3633V9.60059H41.4499V10.475Z" fill="#2E388B"/>
<path fill-rule="evenodd" clip-rule="evenodd" d="M33.0604 13.49H33.2491C33.2983 13.4898 33.347 13.4992 33.3926 13.5178C33.4381 13.5364 33.4795 13.5638 33.5145 13.5984C33.5494 13.633 33.5772 13.6741 33.5963 13.7195C33.6153 13.7648 33.6253 13.8135 33.6255 13.8627C33.6258 13.9119 33.6163 13.9606 33.5977 14.0062C33.5791 14.0517 33.5518 14.0931 33.5171 14.1281C33.4825 14.1631 33.4414 14.1909 33.396 14.2099C33.3507 14.229 33.302 14.2389 33.2528 14.2391H33.0601L33.0604 13.49ZM32.7656 13.2733V14.4559H33.2546C33.726 14.4559 33.941 14.2059 33.941 13.8663C33.9425 13.7828 33.9261 13.6999 33.893 13.6232C33.8598 13.5465 33.8107 13.4778 33.7488 13.4217C33.687 13.3655 33.6138 13.3233 33.5343 13.2977C33.4548 13.2721 33.3708 13.2637 33.2878 13.2733H32.7656ZM34.4635 14.4559H34.1687V13.2719H34.4635V14.4545V14.4559ZM35.3044 14.4716H35.176L34.6039 13.2733H34.9244L35.237 13.9478L35.5331 13.2733H35.8509L35.3044 14.4716ZM36.8581 14.4559H35.9875V13.2719H36.8475V13.4886H36.2826V13.7365H36.8215V13.9532H36.2826V14.2374H36.8599V14.4542L36.8581 14.4559ZM37.3779 13.49H37.5268C37.6381 13.49 37.6956 13.5352 37.6956 13.6232C37.6956 13.7238 37.6152 13.7601 37.5344 13.7601H37.3779V13.49ZM37.0831 13.2733V14.4559H37.3779V13.9765H37.4628C37.622 13.9765 37.6682 14.2039 37.7959 14.4559H38.1198C37.9534 14.109 37.9171 13.9632 37.7959 13.9029C37.8555 13.8816 37.907 13.8423 37.9433 13.7905C37.9796 13.7387 37.9989 13.6769 37.9986 13.6136C37.9968 13.5655 37.9852 13.5182 37.9644 13.4747C37.9437 13.4312 37.9144 13.3924 37.8782 13.3606C37.842 13.3288 37.7997 13.3048 37.7539 13.2899C37.7081 13.275 37.6597 13.2696 37.6117 13.274H37.0831V13.2733ZM39.222 13.49H38.793V14.4559H38.4982V13.49H38.0705V13.2719H39.2223L39.222 13.49ZM39.7051 14.4559H39.4113V13.2719H39.7061V14.4545L39.7051 14.4559ZM40.7719 13.58C40.6561 13.5184 40.5284 13.4822 40.3974 13.4739C40.2912 13.4739 40.2238 13.5123 40.2238 13.5708C40.2238 13.7495 40.825 13.6995 40.825 14.1118C40.825 14.3391 40.6346 14.4706 40.371 14.4706C40.2208 14.4733 40.073 14.4335 39.9444 14.3559V14.1008C40.059 14.1939 40.2006 14.2475 40.3481 14.2535C40.4614 14.2535 40.5217 14.2138 40.5217 14.1443C40.5217 13.9502 39.9197 14.0214 39.9197 13.5965C39.9197 13.391 40.0968 13.2568 40.371 13.2568C40.5096 13.2585 40.6463 13.2897 40.7719 13.3483V13.58ZM41.8186 13.58C41.7029 13.5183 41.5753 13.4821 41.4444 13.4739C41.3382 13.4739 41.2705 13.5123 41.2705 13.5708C41.2705 13.7495 41.8724 13.6995 41.8724 14.1118C41.8724 14.3391 41.682 14.4706 41.4184 14.4706C41.2682 14.4732 41.1203 14.4335 40.9918 14.3559V14.1008C41.1063 14.1939 41.2479 14.2475 41.3954 14.2535C41.5081 14.2535 41.569 14.2138 41.569 14.1443C41.569 13.9502 40.9678 14.0214 40.9678 13.5965C40.9678 13.391 41.1445 13.2568 41.4184 13.2568C41.5568 13.2585 41.6932 13.2897 41.8186 13.3483V13.5794V13.58ZM42.9485 14.4559H42.0751V13.2719H42.9355V13.4886H42.3699V13.7365H42.9094V13.9532H42.3699V14.2374H42.9478V14.4542L42.9485 14.4559ZM44.19 13.2733H44.4457V14.4559H44.1516V13.717L43.8329 14.0881H43.7877L43.4686 13.717V14.4559H43.1738V13.2719H43.4302L43.8099 13.7105L44.19 13.2719V13.2733ZM45.5835 14.4559H44.7114V13.2719H45.5715V13.4886H45.0066V13.7365H45.5458V13.9532H45.0059V14.2374H45.5831V14.4542L45.5835 14.4559ZM47.0078 14.4559H46.7599L46.1056 13.6985V14.4559H45.8108V13.2719H46.081L46.7127 13.995V13.2719H47.0074V14.4545L47.0078 14.4559ZM48.3407 13.49H47.9124V14.4559H47.6176V13.49H47.1899V13.2719H48.3407V13.4886V13.49Z" fill="white"/>
</svg>
