<svg width="44" height="17" viewBox="0 0 44 17" fill="none" xmlns="http://www.w3.org/2000/svg">
<path d="M26.3349 0.273463C25.4135 0.270766 24.504 0.481225 23.6775 0.888385C22.8509 1.29554 22.1297 1.88837 21.5703 2.62051H23.3986C23.9853 2.15184 24.676 1.83089 25.4125 1.68462C26.1491 1.53835 26.9099 1.57104 27.6312 1.77995L27.9123 0.485399C27.3976 0.34544 26.8666 0.274177 26.3332 0.273463H26.3349Z" fill="#B4B11A"/>
<path d="M11.2848 3.56092C10.7779 3.5324 10.2708 3.61291 9.7976 3.797C9.32445 3.9811 8.89627 4.26452 8.54194 4.62813C7.90685 5.35536 7.57768 6.30007 7.62333 7.26449C7.58651 8.24968 7.91874 9.21314 8.55495 9.96625C8.89737 10.3495 9.32184 10.6505 9.79674 10.8469C10.2716 11.0433 10.7847 11.13 11.2978 11.1006C12.478 11.1006 13.3737 10.7493 14.0129 10.0464C14.6429 9.31691 14.9672 8.3726 14.9185 7.41001C14.96 6.42846 14.6372 5.46622 14.0122 4.70825C13.6732 4.32388 13.2518 4.02094 12.7795 3.822C12.3071 3.62305 11.796 3.53323 11.2841 3.55921L11.2848 3.56092ZM11.2978 9.84231C10.9926 9.85757 10.6883 9.79672 10.4125 9.66524C10.1366 9.53376 9.89772 9.33576 9.71735 9.08906C9.35407 8.55105 9.17397 7.91024 9.20377 7.26175C9.20377 5.632 9.89733 4.8169 11.2844 4.81644C11.5854 4.80353 11.8849 4.86557 12.1559 4.99698C12.427 5.12839 12.6612 5.32507 12.8375 5.56935C13.1988 6.11272 13.3743 6.75852 13.3377 7.41001C13.3377 9.03154 12.6577 9.84231 11.2978 9.84231ZM22.2377 3.9259H20.8205L20.5572 4.58465L18.9275 8.66758L16.8732 3.9259H15.2681L18.1578 10.7763H19.5226L21.9778 4.58465L22.2377 3.9259ZM26.2353 3.57564C25.047 3.57564 24.1328 3.96299 23.4925 4.7377C22.8979 5.47332 22.5907 6.39983 22.628 7.34495C22.5917 8.31324 22.9141 9.26085 23.5336 10.006C24.1727 10.735 25.0777 11.0995 26.2487 11.0995C27.0961 11.0839 27.9373 10.9508 28.7481 10.7041V9.3568C27.9487 9.66008 27.1035 9.82484 26.2487 9.84402C25.9461 9.85211 25.6458 9.78973 25.3716 9.66179C25.0973 9.53385 24.8565 9.34387 24.6682 9.10686C24.3674 8.78081 24.1944 8.3571 24.181 7.91365H27.331C27.7981 7.926 28.2555 7.77838 28.6272 7.49526C28.8029 7.36146 28.9437 7.18736 29.0378 6.98767C29.132 6.78797 29.1767 6.56855 29.1682 6.34793C29.1724 5.97873 29.0974 5.61291 28.9483 5.27514C28.7991 4.93737 28.5793 4.63549 28.3037 4.38983C28.0299 4.12496 27.7064 3.91694 27.3518 3.77779C26.9972 3.63863 26.6186 3.57109 26.2377 3.57907L26.2353 3.57564ZM27.194 6.65505H24.181C24.2041 6.2784 24.346 5.91877 24.5864 5.6279C24.7764 5.36838 25.0276 5.15979 25.3175 5.02063C25.6075 4.88146 25.9274 4.81603 26.2487 4.83014C26.4337 4.83533 26.6157 4.87881 26.7831 4.95783C26.9506 5.03686 27.0998 5.14971 27.2214 5.28928C27.4823 5.5269 27.6417 5.85587 27.6665 6.20789C27.6665 6.50543 27.5097 6.65299 27.194 6.65299V6.65505ZM32.0045 9.10036V0.44043H30.5056V9.23286C30.4992 9.47783 30.5481 9.72108 30.6485 9.94459C30.749 10.1681 30.8985 10.3661 31.0859 10.524C31.479 10.8537 31.9788 11.0287 32.4917 11.016C32.9576 11.0245 33.4193 10.9267 33.8418 10.7301V9.47767C33.4921 9.67612 33.0946 9.77456 32.6927 9.76219C32.6014 9.77641 32.508 9.76934 32.4199 9.74153C32.3317 9.71372 32.2512 9.66591 32.1846 9.60184C32.118 9.53778 32.067 9.45918 32.0358 9.37219C32.0046 9.2852 31.9939 9.19217 32.0045 9.10036ZM34.8367 3.9259H36.3357V10.7736H34.8367V3.9259ZM34.8367 0.441114H36.3357V1.84489H34.8367V0.441114ZM42.9916 4.25048C42.5027 3.81167 41.8653 3.57508 41.2085 3.58865C40.27 3.584 39.3363 3.72255 38.4396 3.99952V5.31872C39.2358 5.00612 40.0837 4.84584 40.939 4.84623C41.795 4.84623 42.2353 5.26154 42.2353 6.09183V6.46605H41.6272C40.331 6.46605 39.3312 6.69545 38.6279 7.15424C38.3236 7.33406 38.0721 7.5911 37.899 7.89936C37.7259 8.20762 37.6373 8.55615 37.6422 8.90965C37.6361 9.2261 37.7096 9.53902 37.8558 9.81974C38.0019 10.1005 38.2162 10.34 38.479 10.5165C39.0926 10.9289 39.8208 11.1372 40.5597 11.1115C41.6834 11.1124 42.7843 10.7938 43.7339 10.1929V5.88331C43.7401 5.57276 43.6766 5.26477 43.5483 4.98193C43.4199 4.69909 43.2298 4.44858 42.992 4.24877L42.9916 4.25048ZM42.235 9.5232C41.7236 9.74646 41.1714 9.86062 40.6134 9.8584C40.2303 9.88359 39.8498 9.77942 39.5329 9.56258C39.427 9.48909 39.3408 9.39076 39.2819 9.2762C39.2229 9.16165 39.1929 9.03438 39.1946 8.90554C39.2004 8.74959 39.2471 8.59791 39.3301 8.4657C39.413 8.3335 39.5292 8.22542 39.6671 8.1523C40.1083 7.86629 40.7883 7.72295 41.707 7.72226H42.2332V9.52046L42.235 9.5232Z" fill="#9A3487"/>
<path d="M8.89536 12.2087C8.16297 11.9403 7.52597 11.4619 7.064 10.8334C6.60204 10.2049 6.33561 9.45412 6.29803 8.67499C6.29803 8.63425 6.29152 8.59316 6.28981 8.55242V6.30329C6.30246 5.93802 6.23781 5.57419 6.1001 5.23563C5.96238 4.89708 5.75471 4.59142 5.49068 4.33869C5.20956 4.08282 4.88078 3.88484 4.52313 3.75607C4.16548 3.62729 3.78596 3.57025 3.40625 3.58818C2.82922 3.58818 1.71008 3.87042 0.0488281 4.4349V10.7882H1.54813V5.23574C2.10942 4.99845 2.70927 4.86548 3.31826 4.84337C3.51332 4.83628 3.70782 4.86851 3.89016 4.93816C4.07251 5.0078 4.23897 5.11343 4.37965 5.24875C4.5171 5.38665 4.62455 5.55149 4.69526 5.73291C4.76596 5.91433 4.79839 6.1084 4.79051 6.30295V8.67465H4.79701C4.8532 10.0933 5.45558 11.4354 6.47822 12.4202C7.50087 13.4051 8.86463 13.9566 10.2844 13.9594C10.4022 13.9594 10.5213 13.9546 10.6391 13.9463V12.4398C10.0477 12.4932 9.45186 12.4139 8.89501 12.2077L8.89536 12.2087Z" fill="#9A3487"/>
<path d="M18.898 12.5551L18.761 12.8609H17.3969L17.526 12.5551H18.898ZM15.6381 16.9438L14.4856 15.1655H13.2531V16.9438H12.9199V12.6596H14.4384C15.344 12.6596 15.8572 13.1047 15.8572 13.8921C15.87 14.1871 15.7715 14.4761 15.5813 14.702C15.3911 14.9278 15.123 15.0739 14.8301 15.1114L16.0233 16.9438H15.6381ZM13.2534 12.9722V14.8501H14.4175C15.2707 14.8501 15.5241 14.417 15.5241 13.9103C15.5241 13.431 15.3036 12.9704 14.4175 12.9704H13.2534V12.9722ZM19.4091 15.3439C19.4112 15.4017 19.409 15.4596 19.4026 15.5171H16.9179C16.9213 15.6152 16.9418 15.712 16.9785 15.803C17.0717 16.4289 17.5113 16.6692 18.1375 16.6692C18.5014 16.678 18.8622 16.6001 19.19 16.4419V16.7819C18.8483 16.9237 18.4811 16.9936 18.1112 16.9873C17.3788 16.9873 16.5797 16.6733 16.5797 15.3887C16.5797 14.8751 16.7399 13.6562 18.0177 13.6562C19.3972 13.6562 19.4102 15.1285 19.4102 15.3415L19.4091 15.3439ZM16.9179 15.2244H19.0691C19.0691 15.0641 19.0298 13.9723 17.9968 13.9723C17.2973 13.9733 16.9508 14.4396 16.9179 15.2257V15.2244ZM22.24 16.1022C22.24 16.622 21.8394 16.9948 21.068 16.9948C20.7169 16.9985 20.3701 16.9183 20.0562 16.761V16.4159C20.3637 16.5801 20.7064 16.667 21.055 16.6692C21.5487 16.6692 21.9082 16.483 21.9082 16.1036C21.9082 15.1377 20.0758 15.69 20.0758 14.5509C20.0758 14.0918 20.3897 13.6518 21.1741 13.6518C21.4752 13.6556 21.7722 13.7213 22.0469 13.8446V14.1715C21.7861 14.043 21.4995 13.9752 21.2087 13.9733C20.7821 13.9733 20.4096 14.1335 20.4096 14.5536C20.4096 15.3411 22.242 14.8529 22.242 16.1063L22.24 16.1022ZM23.0066 12.6205H23.3726V13.1142H23.0066V12.6205ZM23.0261 13.7124H23.3531V16.9438H23.0261V13.7124ZM25.7248 13.6583C26.0375 13.6568 26.3482 13.7088 26.6434 13.812V12.4668H26.9704V15.991C26.9704 16.2378 26.8577 16.9962 25.6775 16.9962C25.1314 16.9962 24.2457 16.7771 24.2457 15.298C24.2457 13.9459 25.0318 13.6583 25.7248 13.6583ZM25.6772 16.6887C26.3962 16.6887 26.643 16.3422 26.643 16.0023V14.1445C26.3513 14.0259 26.0394 13.9648 25.7244 13.9647C25.0184 13.9647 24.5785 14.3047 24.5785 15.2969C24.5785 16.536 25.2177 16.6894 25.6768 16.6894L25.6772 16.6887ZM30.6527 15.3452C30.6547 15.4031 30.6525 15.461 30.6462 15.5185H28.1618C28.1652 15.6166 28.1857 15.7133 28.2225 15.8044C28.3156 16.4302 28.7552 16.6706 29.3814 16.6706C29.7453 16.6795 30.1061 16.6015 30.4339 16.4432V16.7832C30.0922 16.925 29.725 16.995 29.3551 16.9887C28.6227 16.9887 27.8236 16.6747 27.8236 15.3901C27.8236 14.8765 27.9838 13.6576 29.2616 13.6576C30.6411 13.6576 30.6541 15.1299 30.6541 15.3428L30.6527 15.3452ZM28.1615 15.2257H30.3127C30.3127 15.0655 30.2733 13.9736 29.2404 13.9736C28.5412 13.9733 28.1947 14.4396 28.1618 15.2257H28.1615ZM34.0998 14.8385V16.9438H33.7663V14.8385C33.7663 14.366 33.5671 13.9853 32.8135 13.9853C32.4614 13.9902 32.1132 14.0599 31.7863 14.1907V16.9418H31.4594V13.9973C31.8885 13.7765 32.3628 13.6579 32.8453 13.6508C33.6379 13.6508 34.0974 14.0514 34.0974 14.8358L34.0998 14.8385ZM36.5109 16.6774C36.8209 16.6764 37.128 16.6177 37.4165 16.5042V16.8247C37.1162 16.9384 36.7978 16.9971 36.4767 16.9979C35.7902 16.9979 34.9647 16.7185 34.9647 15.3257C34.9647 13.9329 35.7902 13.6535 36.4767 13.6535C36.7975 13.6577 37.1153 13.7163 37.4165 13.8267V14.1472C37.1267 14.0365 36.8197 13.9776 36.5095 13.9733C35.7772 13.9733 35.2903 14.3133 35.2903 15.325C35.2903 16.3368 35.7775 16.6781 36.5095 16.6781L36.5109 16.6774ZM40.7886 15.3452C40.7907 15.4031 40.7885 15.461 40.7821 15.5185H38.2978C38.3012 15.6166 38.3217 15.7133 38.3584 15.8044C38.4515 16.4302 38.8911 16.6706 39.5174 16.6706C39.8813 16.6794 40.242 16.6015 40.5699 16.4432V16.7832C40.2281 16.925 39.8609 16.995 39.491 16.9887C38.7586 16.9887 37.9595 16.6747 37.9595 15.3901C37.9595 14.8765 38.1198 13.6576 39.3975 13.6576C40.777 13.6576 40.79 15.1299 40.79 15.3428L40.7886 15.3452ZM38.2975 15.2261H40.4487C40.4487 15.0658 40.4093 13.974 39.3763 13.974C38.6754 13.9733 38.329 14.4396 38.2961 15.2257L38.2975 15.2261ZM43.6181 16.1036C43.6181 16.6233 43.2175 16.9962 42.4461 16.9962C42.0951 16.9999 41.7482 16.9197 41.4344 16.7624V16.4159C41.7418 16.5801 42.0846 16.667 42.4331 16.6692C42.9268 16.6692 43.2863 16.483 43.2863 16.1036C43.2863 15.1377 41.4539 15.69 41.4539 14.5509C41.4539 14.0918 41.7679 13.6518 42.5523 13.6518C42.8533 13.6556 43.1503 13.7213 43.425 13.8446V14.1715C43.1642 14.043 42.8776 13.9752 42.5868 13.9733C42.1602 13.9733 41.7877 14.1335 41.7877 14.5536C41.7877 15.3411 43.6202 14.8529 43.6202 16.1063L43.6181 16.1036Z" fill="#9D9D9C"/>
</svg>
