<svg width="141" height="31" viewBox="0 0 141 31" fill="none" xmlns="http://www.w3.org/2000/svg">
<path fill-rule="evenodd" clip-rule="evenodd" d="M0.814953 29.8065C0.626953 29.8065 0.501953 29.7435 0.501953 29.4305V28.5595C0.501953 28.2465 0.626953 28.1835 1.00195 28.1835H3.12595C3.62595 28.1835 3.81395 27.9965 3.81395 27.3085C3.87595 25.9965 3.87595 24.5595 3.87595 23.2465V16.6835C3.87595 15.1215 3.62595 14.3715 1.37595 14.0595C1.12595 13.9975 1.00095 13.8725 1.00095 13.6845V13.3095C1.00095 13.1215 1.12595 13.0595 1.31295 12.9965C2.95955 12.3651 4.56648 11.6348 6.12495 10.8095C6.36631 10.6506 6.64801 10.5639 6.93695 10.5595C7.12495 10.5595 7.24995 10.8095 7.12495 11.0595V26.9935C7.24995 27.8685 7.37495 28.1815 7.87495 28.1815H9.93795C10.25 28.1815 10.313 28.3075 10.313 28.6185V29.3695C10.313 29.6195 10.25 29.8065 9.93795 29.8065H0.814953ZM1.81495 2.80652C1.84075 2.47297 1.93289 2.14792 2.08597 1.85045C2.23904 1.55298 2.44998 1.28907 2.70639 1.07419C2.96281 0.859312 3.25955 0.697796 3.57922 0.599115C3.89888 0.500434 4.23503 0.466574 4.56795 0.499521C4.86505 0.484373 5.16214 0.529637 5.44125 0.632577C5.72036 0.735518 5.97569 0.893997 6.19181 1.09843C6.40792 1.30286 6.58033 1.549 6.69861 1.82196C6.81689 2.09492 6.87858 2.38903 6.87995 2.68652C6.89259 3.02073 6.83396 3.35382 6.70795 3.66363C6.58194 3.97344 6.39144 4.25288 6.14911 4.48339C5.90677 4.7139 5.61816 4.8902 5.30243 5.00057C4.98671 5.11093 4.65112 5.15285 4.31795 5.12352C3.68893 5.11511 3.08525 4.8743 2.62314 4.44745C2.16103 4.0206 1.87316 3.4379 1.81495 2.81152V2.80652Z" fill="#B36754"/>
<path fill-rule="evenodd" clip-rule="evenodd" d="M25.6225 29.8079C25.3095 29.8079 25.1845 29.6209 25.1845 29.3079V28.6199C25.1845 28.2459 25.3095 28.1829 25.8095 28.1829H27.1215C27.6215 28.1829 27.9335 27.9959 27.9335 27.1209C27.9955 25.9959 28.1205 24.5589 28.1205 23.4339V17.4969C28.1205 15.6849 28.1205 14.4349 26.7465 13.4969C25.78 12.8845 24.6336 12.6199 23.4965 12.7469C22.8198 12.7717 22.1553 12.9341 21.5436 13.2244C20.9318 13.5146 20.3857 13.9265 19.9385 14.4349C19.2059 15.2576 18.8247 16.3345 18.8765 17.4349V26.7449C18.8765 27.9329 19.0015 28.1829 19.9385 28.1829H21.0005C21.4385 28.1829 21.5005 28.3089 21.5005 28.6199V29.3709C21.5005 29.6209 21.4385 29.8079 21.1875 29.8079H13.3125C13.1255 29.8079 13.0625 29.6209 13.0625 29.3709V28.6199C13.0625 28.3089 13.1255 28.1829 13.4375 28.1829H14.8115C15.3115 28.1829 15.6865 28.0569 15.6865 27.3079V16.8079C15.6877 16.2368 15.5065 15.6803 15.1692 15.2194C14.8319 14.7585 14.3562 14.4175 13.8115 14.2459L13.4385 14.0599C13.1885 13.8729 13.1265 13.7469 13.1265 13.6229V13.4369C13.1265 13.1869 13.3135 13.0619 13.5645 12.9989L17.3735 10.8769C17.6017 10.685 17.8875 10.5748 18.1855 10.5639C18.3735 10.5639 18.4355 10.6889 18.4975 11.0639L18.8105 13.7499H18.8725C20.4392 11.92 22.66 10.7761 25.0595 10.5629C26.4008 10.515 27.7265 10.8628 28.8715 11.5629C30.1951 12.5631 31.0709 14.045 31.3085 15.6869V27.2479C31.3085 27.9979 31.6835 28.1849 32.2455 28.1849H33.6825C34.0575 28.1849 34.1825 28.3109 34.1825 28.6219V29.3099C34.1825 29.6229 34.0575 29.8099 33.8705 29.8099H25.6225V29.8079ZM60.1785 28.8079C59.2996 28.8548 58.4242 28.6649 57.6438 28.258C56.8633 27.8512 56.2064 27.2423 55.7415 26.4949C54.4723 24.6944 53.8753 22.5055 54.0545 20.3099C54.0545 16.8719 54.6795 15.0599 56.3665 13.3099C56.8173 12.8397 57.3617 12.4692 57.9646 12.2224C58.5674 11.9756 59.2154 11.8579 59.8665 11.8769C62.1165 11.8769 65.8035 15.0009 65.8035 19.9379C65.8035 24.7459 63.6155 28.8079 60.1785 28.8079ZM59.6785 30.1829C62.2527 30.0947 64.6974 29.0326 66.5185 27.2113C68.3397 25.3899 69.4016 22.9451 69.4895 20.3709C69.5008 19.0233 69.241 17.6871 68.7257 16.4418C68.2103 15.1965 67.4498 14.0675 66.4895 13.1219C64.7705 11.5233 62.5244 10.6116 60.1775 10.5599C58.0176 10.5934 55.9294 11.3406 54.2385 12.6849C53.1077 13.5229 52.1785 14.603 51.519 15.8464C50.8594 17.0897 50.4861 18.4648 50.4265 19.8709C50.4265 22.9949 50.7385 24.6829 52.8635 27.0569C53.7067 28.038 54.752 28.8252 55.9277 29.3648C57.1034 29.9043 58.3819 30.1834 59.6755 30.1829H59.6785ZM71.8645 29.8069C71.7385 29.8069 71.5515 29.7439 71.5515 29.3699V28.6189C71.5515 28.2449 71.7385 28.1819 72.0515 28.1819H73.8635C74.4885 28.1819 74.8635 27.9319 74.8635 27.3699V17.8089C74.8635 15.4959 74.4895 15.0589 73.2385 14.3719L72.4265 13.9969C72.1155 13.8719 72.0525 13.8099 72.0525 13.6849V13.4349C72.0525 13.1849 72.1155 13.1219 72.4265 12.9969L76.8645 10.6849C77.054 10.5782 77.2725 10.5345 77.4885 10.5599C77.6775 10.5599 77.7395 10.8099 77.7395 11.0599L77.9895 14.1219H78.1765C79.4885 12.1219 81.5505 10.2479 83.4885 10.2479C83.7752 10.208 84.0671 10.2299 84.3446 10.3119C84.6222 10.394 84.879 10.5344 85.0979 10.7237C85.3168 10.9131 85.4928 11.1471 85.6139 11.4099C85.7351 11.6728 85.7987 11.9585 85.8005 12.2479C85.7963 12.7691 85.6043 13.2713 85.2597 13.6624C84.9151 14.0535 84.441 14.3072 83.9245 14.3769C83.4678 14.3848 83.0165 14.2771 82.6125 14.0639C82.1776 13.809 81.6806 13.6792 81.1765 13.6889C80.6024 13.7339 80.0507 13.9314 79.5783 14.2608C79.106 14.5902 78.7301 15.0397 78.4895 15.5629C78.2903 16.0026 78.1433 16.4641 78.0515 16.9379V26.3109C78.0515 27.6859 78.3645 28.1859 79.3025 28.1859H81.4275C81.6775 28.1859 81.6775 28.3119 81.6775 28.6229V29.3739C81.6775 29.6239 81.6775 29.8109 81.4905 29.8109L71.8645 29.8069ZM112.544 29.8069C112.357 29.8069 112.232 29.6199 112.232 29.3699V28.6189C112.232 28.2449 112.356 28.1819 112.856 28.1819H113.919C114.419 28.1819 114.794 27.9949 114.794 27.3699C114.897 26.1649 114.939 24.9553 114.92 23.7459V17.1219C114.92 15.6219 114.669 14.3729 113.607 13.5609C112.653 12.9133 111.508 12.6051 110.357 12.6859C109.577 12.7175 108.817 12.9389 108.141 13.331C107.466 13.7231 106.897 14.274 106.482 14.9359C105.796 16.2489 105.858 17.4359 105.858 19.4359V27.1209C105.858 27.6839 106.046 28.1829 106.732 28.1829H108.232C108.606 28.1829 108.732 28.2459 108.732 28.6199V29.3079C108.732 29.6209 108.606 29.8079 108.42 29.8079H100.239C99.9875 29.8079 99.9255 29.6209 99.9255 29.3709V28.6199C99.9255 28.2459 99.9255 28.1829 100.363 28.1829H101.674C102.361 28.1829 102.674 27.9959 102.674 27.4329V18.2479C102.674 14.9359 102.05 14.1239 101.3 13.4369C100.475 12.8756 99.483 12.6111 98.4875 12.6869C97.6074 12.6992 96.7459 12.9423 95.9892 13.3919C95.2325 13.8415 94.6071 14.4818 94.1755 15.2489C93.664 16.1381 93.4454 17.1656 93.5505 18.1859V26.9969C93.5505 27.6849 93.8635 28.1849 94.4885 28.1849H96.0505C96.4875 28.1849 96.4875 28.2479 96.4875 28.6219V29.3099C96.4875 29.6229 96.4875 29.8099 96.1135 29.8099H87.9255C87.6745 29.8099 87.6125 29.7469 87.6125 29.3729V28.6219C87.6125 28.1849 87.6735 28.1849 88.1755 28.1849H89.6755C90.0515 28.1849 90.3005 27.9349 90.3005 27.0599C90.3615 26.3099 90.3615 25.4979 90.3615 24.7479V16.8109C90.4113 16.3445 90.3187 15.8739 90.0957 15.4611C89.8727 15.0484 89.5299 14.7129 89.1125 14.4989L88.1755 14.0609C87.9255 13.8739 87.8625 13.8109 87.8625 13.6859V13.3769C87.8555 13.286 87.8843 13.1958 87.9428 13.1258C88.0012 13.0557 88.0847 13.0113 88.1755 13.0019L92.0495 11.0019C92.2975 10.8465 92.5732 10.7405 92.8615 10.6899C93.1745 10.6899 93.2985 11.0019 93.2985 11.3149L93.4865 13.8769H93.6105C94.4037 12.8876 95.3999 12.08 96.532 11.5086C97.664 10.9372 98.9055 10.6154 100.173 10.5649C101.261 10.5766 102.321 10.9089 103.222 11.5202C104.122 12.1316 104.822 12.9948 105.234 14.0019H105.422C106.19 12.9911 107.17 12.16 108.292 11.5664C109.415 10.9728 110.653 10.631 111.922 10.5649C112.652 10.4929 113.39 10.5723 114.089 10.798C114.788 11.0237 115.433 11.391 115.983 11.8769C116.983 12.9389 118.108 13.8769 118.108 17.3769V27.3129C118.094 27.4312 118.107 27.5512 118.146 27.6638C118.185 27.7764 118.248 27.8787 118.333 27.963C118.417 28.0473 118.519 28.1113 118.632 28.1503C118.744 28.1893 118.864 28.2021 118.982 28.1879H120.233C120.67 28.1879 120.733 28.2509 120.733 28.6249V29.3759C120.733 29.6259 120.671 29.8129 120.421 29.8129H112.546L112.544 29.8069ZM133.353 25.3709C133.353 26.4949 130.978 28.1199 129.666 28.1199C128.354 28.1199 127.416 27.3079 127.416 25.6199C127.416 21.9319 131.789 21.0579 133.353 19.8699V25.3699V25.3709ZM136.541 21.7459V14.8769C136.608 14.3197 136.56 13.7544 136.398 13.2168C136.237 12.6791 135.966 12.1807 135.603 11.7529C135.123 11.3206 134.559 10.992 133.946 10.7877C133.333 10.5835 132.685 10.508 132.041 10.5659C130.095 10.5384 128.183 11.0814 126.541 12.1279C124.792 13.1279 123.541 14.8769 123.541 16.2529C123.541 17.3149 123.854 17.7529 124.603 17.7529C126.416 17.7529 126.916 16.7529 126.916 15.1289C126.916 14.3789 126.54 13.6919 127.166 13.1289C128.017 12.505 129.049 12.176 130.103 12.1919C130.582 12.1539 131.064 12.2178 131.516 12.3793C131.968 12.5408 132.381 12.7963 132.728 13.1289C133.153 13.8926 133.368 14.7551 133.353 15.6289V18.4969C131.769 19.5223 130.096 20.4006 128.353 21.1209C124.853 22.6209 123.916 24.4339 123.916 26.4339C123.916 29.3079 125.542 30.1839 126.541 30.1839C127.444 30.2311 128.349 30.1466 129.228 29.9329C130.903 29.4134 132.426 28.4912 133.664 27.2469H133.726C134.102 28.9959 135.227 30.1839 136.853 30.1839C137.58 30.2138 138.299 30.0203 138.914 29.6294C139.528 29.2384 140.008 28.6687 140.289 27.9969C140.391 27.8764 140.452 27.7268 140.463 27.5696C140.474 27.4125 140.436 27.2558 140.353 27.1219L139.914 26.8089C139.728 26.6849 139.602 26.7459 139.478 26.9959C139.032 27.398 138.453 27.6206 137.853 27.6209C137.103 27.6209 136.541 26.8709 136.541 24.3079V21.7459ZM42.9315 10.9979C42.3685 3.74893 45.9935 2.93692 47.2435 2.93692C50.2435 2.93692 48.9935 4.93692 50.4925 4.93692C52.3045 4.93692 52.7425 3.24992 52.4295 2.81292C51.3045 0.562921 48.3675 0.750925 48.1175 0.750925C40.5565 2.12492 39.9315 11.0619 39.9315 11.0619H37.1825C36.8075 11.0619 36.6825 11.1239 36.6195 11.4369L36.4945 12.7489C36.3695 13.1239 36.4945 13.1859 36.6825 13.1859H39.7445V26.6209C39.7445 27.6209 39.5565 28.1829 38.6825 28.1829H36.5585C36.1835 28.1829 36.1205 28.2459 36.1205 28.4959V29.4959C36.1205 29.7459 36.1825 29.8089 36.4955 29.8089H46.8695C47.1195 29.8089 47.2445 29.6213 47.2445 29.2459V28.5589C47.2445 28.2459 47.1195 28.1829 46.6815 28.1829H44.1815C43.2445 28.1829 43.0575 27.7459 42.9945 26.9949C42.9325 26.4949 42.9325 22.4329 42.9325 17.1849V13.1849H47.8695C48.1825 13.1849 48.4325 13.1229 48.4945 12.9979L48.6825 11.5609C48.6825 11.3109 48.6825 11.0609 48.3695 11.0609H42.9315V10.9979Z" fill="#38367F"/>
</svg>
