<svg width="44" height="12" viewBox="0 0 44 12" fill="none" xmlns="http://www.w3.org/2000/svg">
<path fill-rule="evenodd" clip-rule="evenodd" d="M11.7196 5.5512L12.4146 7.28435C12.6687 7.81634 12.8529 8.37899 12.9624 8.95827C12.9624 9.3253 12.9015 9.60469 12.6201 9.72178C12.5228 9.75123 12.4619 9.78033 12.4619 9.83922C12.4619 9.86867 12.5228 9.88305 12.5834 9.88305C12.6564 9.88305 13.059 9.83922 14.0584 9.83922C14.7654 9.83922 15.3379 9.88305 15.4232 9.88305C15.5331 9.88305 15.5944 9.85394 15.5944 9.80978C15.5944 9.73616 15.4482 9.67762 15.3139 9.55983C14.9628 9.21244 14.685 8.79807 14.497 8.34129L10.915 0.265127C10.891 0.205894 10.8544 0.147688 10.8181 0.147688C10.7688 0.147688 10.7452 0.191514 10.7082 0.265127L7.72157 7.25456C7.36889 8.09421 6.89249 8.87632 6.30821 9.5749C6.22261 9.64851 6.07641 9.70706 6.07641 9.80978C6.07641 9.85394 6.11305 9.88305 6.23528 9.88305C6.38148 9.88305 6.69852 9.83922 7.18574 9.83922C7.85613 9.83922 8.2954 9.88305 8.38032 9.88305C8.46523 9.88305 8.52652 9.86832 8.52652 9.80978C8.52652 9.76561 8.48988 9.73616 8.3923 9.70706C8.18968 9.65267 8.01268 9.52867 7.89235 9.35681C7.77202 9.18495 7.71604 8.97622 7.73424 8.76721C7.76146 8.18598 7.90661 7.61635 8.16085 7.09295L8.81857 5.55222H11.7196V5.5512ZM11.5614 5.1845H8.97743L10.2569 2.13009L11.5614 5.1845ZM16.4941 5.3509C16.3786 5.11343 16.3012 4.85923 16.2647 4.59766C16.2527 4.50878 16.2717 4.41846 16.3185 4.34198C16.3654 4.26549 16.4372 4.20753 16.5219 4.17789C16.6047 4.05635 16.5308 4.04539 16.4846 4.04539C16.4116 4.04539 16.0816 4.08922 15.6591 4.08922C15.2188 4.08922 14.989 4.04539 14.8425 4.04539C14.7785 4.04539 14.7237 4.04539 14.7237 4.08922C15.2191 4.50932 15.5112 5.22799 15.8611 6.0682L17.4665 9.83785C17.522 9.9481 17.5309 10.0036 17.5583 10.0036C17.6042 10.0036 17.6593 9.91523 17.687 9.84915L19.4756 5.72753C19.6922 5.16944 20.0096 4.65599 20.412 4.21282C20.4348 4.19832 20.4541 4.17888 20.4684 4.15595C20.4827 4.13302 20.4916 4.10717 20.4946 4.08032C20.4946 4.04608 20.4391 4.04608 20.3747 4.04608C20.1351 4.04608 20.0539 4.0899 19.6961 4.0899C19.3195 4.0899 19.2373 4.04608 18.9983 4.04608C19.2096 4.245 19.4113 4.37785 19.4113 4.75378C19.3717 5.15502 19.2664 5.54703 19.0997 5.91412L17.9257 8.66655L16.4941 5.3509ZM27.9736 4.04676C27.5985 4.18707 27.2118 4.29441 26.8181 4.36757C26.7082 4.38983 26.6434 4.38983 26.6434 4.4227C26.6434 4.44495 26.7082 4.47782 26.8088 4.53329C27.0659 4.66579 27.13 5.04207 27.13 5.70527V8.44674C27.13 9.14281 27.0937 9.66221 26.6345 9.75089C26.5318 9.86113 26.5609 9.87243 26.6157 9.87243C26.6797 9.87243 27.1022 9.83819 27.5977 9.83819C28.0931 9.83819 28.4694 9.87243 28.5341 9.87243C28.6166 9.7841 28.5793 9.76184 28.5156 9.75089C28.1023 9.66221 28.0753 9.14281 28.0753 8.44674V7.09706C28.0753 5.54949 28.4327 4.20083 29.5243 4.20083C30.4973 4.20083 30.8739 5.28414 30.8739 6.30102V8.44572C30.8739 9.42904 30.7089 9.72795 30.3778 9.77211C30.5148 9.87141 30.8466 9.83854 31.3413 9.83854C31.8463 9.83854 32.085 9.87277 32.1675 9.87277C32.2585 9.87277 32.3044 9.87278 32.3044 9.83854C32.3044 9.81628 32.25 9.78307 32.1853 9.76116C31.9199 9.65057 31.8001 9.49581 31.8189 8.44606V6.313C31.8189 4.5552 30.8739 3.92521 29.8643 3.92521C28.6529 3.92521 28.203 4.699 27.9928 5.63714L27.9736 4.04676ZM34.269 5.98123C34.3786 5.03078 34.8651 4.1351 35.769 4.1351C36.8016 4.1351 37.2687 4.89793 37.2687 5.98123H34.269ZM38.5197 6.19146C38.4622 5.56336 38.1688 4.98039 37.6987 4.5599C37.2286 4.13941 36.6167 3.91263 35.9861 3.92521C34.2985 3.92521 33.0467 5.19649 33.0467 6.96524C33.0467 8.734 34.2985 10.0049 35.9861 10.0049C37.3371 10.0049 38.3304 9.08803 38.6481 7.56236H38.4396C38.1017 8.85555 37.2574 9.72897 36.1155 9.72897C35.152 9.72897 34.1982 8.96614 34.1982 6.90978C34.1982 6.67764 34.2084 6.44585 34.2276 6.19077H38.519L38.5197 6.19146ZM25.6711 6.19146C25.6135 5.5634 25.3201 4.98047 24.85 4.55999C24.3799 4.13952 23.768 3.91271 23.1374 3.92521C21.4498 3.92521 20.1984 5.19649 20.1984 6.96524C20.1984 8.734 21.4498 10.0049 23.1374 10.0049C24.4888 10.0049 25.4817 9.08803 25.7995 7.56236H25.591C25.2534 8.85555 24.4097 9.72897 23.2672 9.72897C22.3037 9.72897 21.3498 8.96614 21.3498 6.90978C21.3498 6.67764 21.3598 6.44585 21.3793 6.19077H25.6697L25.6711 6.19146ZM21.42 5.98123C21.5299 5.03078 22.0165 4.1351 22.92 4.1351C23.9533 4.1351 24.4197 4.89793 24.4197 5.98123H21.42ZM20.7151 0.0439453H22.3058L23.21 2.86417H23.0909L20.7151 0.0439453ZM0.103516 11.1783H43.7575V11.9384H0.103516V11.1783Z" fill="black"/>
</svg>
