<svg width="144" height="45" viewBox="0 0 144 45" fill="none" xmlns="http://www.w3.org/2000/svg">
<path fill-rule="evenodd" clip-rule="evenodd" d="M10.928 30.118L10.852 15.253C9.48196 16.1885 7.84532 16.6542 6.188 16.58V33.08C7.46394 31.6736 9.10465 30.6484 10.928 30.118ZM6.188 15.707V8.313C9.297 8.313 11.914 9.943 11.914 11.991C11.914 14.001 9.336 15.669 6.226 15.708L6.188 15.707ZM6.188 16.58C4.51909 16.6393 2.86991 16.2027 1.448 15.327L1.637 44.716C1.55789 40.3871 3.19384 36.2025 6.188 33.075V16.58ZM6.188 8.313V15.707C3.079 15.707 0.5 14.076 0.5 12.028C0.499 10.019 3.078 8.35 6.188 8.313ZM97.92 29.512L97.807 14.647C96.4431 15.5661 94.8237 16.0305 93.18 15.974V29.548L97.92 29.512ZM93.18 15.062V7.70599C96.289 7.70599 98.868 9.33599 98.907 11.346C98.907 13.394 96.329 15.063 93.219 15.063L93.18 15.062ZM93.18 15.972C91.5075 16.0179 89.8586 15.5691 88.44 14.682L88.516 29.547L93.18 29.548V15.972ZM93.18 7.70599V15.062C90.071 15.062 87.492 13.432 87.492 11.422C87.492 9.374 90.07 7.70599 93.18 7.70599ZM38.346 15.062L31.634 15.099C33.871 15.099 36.601 16.92 36.753 18.816L38.345 18.778L38.421 29.927L47.788 29.888L47.75 18.74H50.365C51.958 16.199 55.712 14.948 57.419 14.948L47.711 14.986L47.635 0.5C47.672 8.654 42.212 14.153 38.344 15.063L38.346 15.062Z" fill="black"/>
<path fill-rule="evenodd" clip-rule="evenodd" d="M27.2707 19.1961L27.3087 30.0421L36.0687 30.0031L36.0307 19.9551C36.0307 15.1391 25.7167 14.0771 22.3027 16.5811V15.2151L13.4297 15.2531L13.5437 30.1531L22.3037 30.0771L22.2307 19.2331C22.4197 17.7171 27.1977 17.2621 27.2707 19.1961ZM87.4137 19.4961V14.8351C85.6681 14.7607 83.9437 15.2398 82.4867 16.2041L82.4497 14.8391L73.6137 14.9151L73.6897 29.7801L82.4497 29.7041L82.4107 21.0581C82.5257 19.8071 84.6107 18.4041 87.4157 19.5041L87.4137 19.4961ZM143.425 13.0111C134.247 12.8221 133.525 13.5421 129.625 15.9311V14.6041L120.789 14.6421L120.865 29.5071L129.625 29.4701L129.586 22.9471C129.751 21.8978 130.125 20.8923 130.686 19.9901C133.186 16.8421 135.73 13.6901 143.428 13.0121L143.425 13.0111ZM63.3367 16.5041C62.6572 16.4215 61.9731 16.3834 61.2887 16.3901V14.9101C67.6217 14.8731 72.8157 18.1711 72.8157 22.2671C72.8278 23.1319 72.6052 23.9837 72.1717 24.7321L61.2887 24.7691V23.3691L63.3747 23.3301L63.3367 16.5041ZM61.2897 29.7771V28.2591H61.3277C63.7131 28.2899 66.0568 27.6319 68.0777 26.3641H68.0017L70.8457 26.3251C68.2364 28.634 64.8487 29.8676 61.3657 29.7771H61.2897ZM61.2897 16.3901C60.5912 16.3765 59.8929 16.4274 59.2037 16.5421L59.2417 23.3681L61.2887 23.3691V24.7691L59.2417 24.7681V28.1041C59.9207 28.192 60.6041 28.2421 61.2887 28.2541V29.7711C54.9887 29.7711 49.7987 26.4711 49.7987 22.3711C49.7607 18.2711 54.9557 14.9001 61.2507 14.9001H61.2877L61.2897 16.3901ZM109.526 13.5041C115.326 13.4671 120.068 17.2961 120.107 21.9601C120.144 26.6601 115.443 30.5301 109.64 30.5691C103.837 30.6081 99.0977 26.7761 99.0587 22.1121C99.0207 17.4141 103.762 13.5461 109.526 13.5041Z" fill="black"/>
<path fill-rule="evenodd" clip-rule="evenodd" d="M109.487 16.0107C110.36 16.0107 111.081 18.7407 111.118 22.1167C111.118 25.4547 110.436 28.1847 109.563 28.1847C108.691 28.2217 107.971 25.4547 107.932 22.1167C107.932 18.7797 108.616 16.0107 109.487 16.0107Z" fill="white"/>
</svg>
