<svg width="42" height="13" viewBox="0 0 42 13" fill="none" xmlns="http://www.w3.org/2000/svg">
<path fill-rule="evenodd" clip-rule="evenodd" d="M0.821583 0.81793C1.61352 0.795675 2.43319 0.769998 3.22307 0.824437C3.32784 0.831627 3.43329 0.847032 3.44699 0.951117C3.46406 1.00756 3.46803 1.06715 3.4586 1.12535C3.44916 1.18356 3.42657 1.23884 3.39255 1.287C3.27275 1.38804 3.14152 1.47468 3.00154 1.54515C2.90499 1.59651 2.92074 1.73039 2.92006 1.79921C2.88993 4.36503 2.91698 6.86239 2.92006 9.42787C2.92245 9.5008 2.99744 9.58434 3.05119 9.58434H3.53806C3.7542 9.57652 3.9674 9.5317 4.16839 9.45184C4.37575 9.36724 4.56471 9.24317 4.72477 9.08651C4.95964 8.85746 4.91958 8.49487 5.09865 8.2172C5.1329 8.15609 5.17896 8.1024 5.23415 8.05925C5.28935 8.01611 5.35257 7.98437 5.42015 7.96589C5.56134 7.95099 5.70402 7.95979 5.84231 7.99191C5.94742 8.02615 5.95221 8.18981 5.95221 8.27198C5.95221 8.86088 5.95221 9.27654 5.95221 9.874C5.95221 9.96268 5.95221 10.1257 5.88682 10.1883C5.79373 10.2512 5.68068 10.2774 5.56943 10.2619C3.93625 10.2619 2.2305 10.2592 0.595267 10.2619C0.561851 10.2588 0.529632 10.2479 0.501206 10.2301C0.47278 10.2122 0.44894 10.1879 0.431607 10.1592C0.41021 10.1132 0.39833 10.0633 0.396683 10.0126C0.395036 9.9619 0.403654 9.91137 0.422021 9.86407C0.472009 9.76341 0.657581 9.67815 0.758242 9.62782C0.815499 9.60255 0.865116 9.56268 0.902128 9.51221C0.939141 9.46173 0.962252 9.40243 0.969151 9.34022C0.969151 6.79391 0.992433 4.40989 0.969151 1.86494C0.976024 1.77971 0.964943 1.69398 0.936624 1.61329C0.824665 1.43628 0.601088 1.37088 0.523024 1.17641C0.508985 1.12693 0.50551 1.07506 0.512824 1.02415C0.520138 0.973249 0.538079 0.924451 0.56548 0.88093C0.642824 0.833872 0.733048 0.812424 0.823295 0.819643L0.821583 0.81793ZM6.2655 4.54376C6.80677 4.48258 7.35122 4.45377 7.89593 4.45748C8.03631 4.45577 8.12327 4.45029 8.15854 4.49172C8.18553 4.55817 8.19531 4.63036 8.18696 4.7016C8.18696 6.2639 8.18696 7.92001 8.18696 9.48094C8.18141 9.52537 8.18502 9.57047 8.19756 9.61346C8.2101 9.65644 8.23131 9.69641 8.25988 9.73088C8.30919 9.78019 8.44306 9.80312 8.48004 9.86201C8.49847 9.90119 8.50627 9.94453 8.50264 9.98767C8.50261 10.0601 8.48271 10.1312 8.44511 10.1931C8.41498 10.2366 8.36637 10.2616 8.23215 10.2616H6.3148C6.29316 10.2639 6.27127 10.2607 6.25121 10.2523C6.23115 10.2438 6.21356 10.2304 6.2001 10.2133C6.18052 10.1851 6.16711 10.1532 6.16073 10.1195C6.14704 10.0443 6.14141 9.96785 6.14395 9.89146C6.14558 9.87127 6.15315 9.85201 6.1657 9.83611C6.17825 9.82021 6.19522 9.80838 6.21448 9.8021C6.2607 9.78703 6.28604 9.7795 6.33431 9.76546C6.36891 9.75753 6.39966 9.7378 6.42128 9.70965C6.4492 9.65643 6.46109 9.59625 6.45552 9.53641C6.45552 8.16413 6.45552 6.74597 6.45552 5.37233C6.45552 5.29769 6.45278 5.27304 6.40827 5.22955C6.34035 5.16701 6.2649 5.11319 6.18367 5.06932C6.14326 5.04775 6.09122 5.00803 6.09122 4.96215C6.09122 4.86731 6.09122 4.78 6.09122 4.65401C6.09122 4.58142 6.14361 4.55643 6.26241 4.54239L6.2655 4.54376ZM7.27895 1.40238C7.83978 1.40238 8.2972 1.70539 8.2972 2.07654C8.2972 2.44768 7.83978 2.75069 7.27895 2.75069C6.71813 2.75069 6.2607 2.44768 6.2607 2.07654C6.2607 1.70539 6.71778 1.40272 7.27861 1.40272L7.27895 1.40238ZM9.15008 3.45977C9.10729 3.73984 9.1042 3.99149 9.08537 4.28731C9.08049 4.34727 9.06365 4.40564 9.03583 4.45898C9.00802 4.51231 8.9698 4.55953 8.92342 4.59785C8.87479 4.63245 8.82184 4.66053 8.76593 4.6814C8.71423 4.69852 8.65089 4.71153 8.59713 4.72351C8.5742 4.73129 8.55434 4.74616 8.54042 4.76599C8.52651 4.78581 8.51927 4.80955 8.51975 4.83376C8.51975 4.90223 8.51975 5.0344 8.52147 5.09363C8.52147 5.18265 8.54988 5.234 8.63069 5.2477C8.71149 5.2614 8.86693 5.23606 8.92993 5.27064C8.94832 5.28093 8.9626 5.29726 8.97033 5.31686C8.98329 5.36503 8.98815 5.41501 8.98471 5.46477C8.98471 6.77953 8.98471 8.09805 8.98471 9.41212C8.98678 9.48418 8.97516 9.55598 8.95047 9.62371C8.91881 9.69008 8.8649 9.74326 8.79811 9.77402C8.74881 9.79731 8.67691 9.83702 8.67691 9.8918C8.67691 9.95343 8.67965 10.0079 8.68444 10.063C8.68426 10.1147 8.70111 10.165 8.73238 10.2061C8.79438 10.2509 8.87128 10.27 8.94705 10.2595C9.05422 10.2595 10.5436 10.2643 10.7959 10.2595C10.8904 10.2578 10.9182 10.2294 10.9476 10.1294C10.9734 10.0322 10.9828 9.93146 10.9753 9.8312C10.9541 9.76033 10.8558 9.75724 10.7863 9.71958C10.759 9.70471 10.7362 9.68266 10.7205 9.65582C10.7047 9.62897 10.6966 9.59834 10.697 9.56722C10.6908 9.47923 10.6816 9.37514 10.6819 9.09781C10.6836 7.87824 10.6819 6.78432 10.6819 5.56509C10.679 5.48927 10.6835 5.41334 10.6956 5.33843C10.6993 5.32462 10.7063 5.3119 10.7159 5.30135C10.7256 5.2908 10.7376 5.28273 10.7511 5.27783C10.8521 5.26391 10.9541 5.25784 11.0561 5.25969C11.146 5.26283 11.2354 5.24575 11.3177 5.2097C11.3446 5.16309 11.3572 5.10965 11.354 5.05597C11.3589 4.93719 11.3528 4.81823 11.3359 4.70057C11.3297 4.6628 11.311 4.62821 11.2828 4.6023C11.2444 4.58597 11.2024 4.57995 11.1609 4.58484H10.8332C10.7919 4.58011 10.7533 4.56167 10.7237 4.53246C10.7078 4.50853 10.6977 4.48121 10.6942 4.45268C10.6833 4.37973 10.679 4.30592 10.6816 4.23219C10.6816 3.86892 10.6953 3.51592 10.6953 3.16258C10.6975 2.84348 10.7516 2.52686 10.8555 2.22513C10.9238 2.0476 11.0288 1.88648 11.1636 1.7523C11.3157 1.6148 11.5008 1.51902 11.7008 1.47428C11.7344 1.65276 11.8276 1.81454 11.9652 1.93308C12.0746 2.02759 12.2031 2.09763 12.3418 2.13851C12.5008 2.19022 12.6721 2.19022 12.8311 2.13851C12.989 2.07372 13.1254 1.96559 13.2245 1.8266C13.267 1.75279 13.2938 1.67091 13.3029 1.58619C13.312 1.50147 13.3034 1.41578 13.2775 1.33459C13.2457 1.24336 13.1942 1.16025 13.1267 1.09114C13.0592 1.02203 12.9773 0.968616 12.8869 0.934684C12.6765 0.857153 12.4532 0.82077 12.2291 0.827516C12.0767 0.826055 11.9243 0.83751 11.7738 0.861757C11.3818 0.916449 11.0031 1.04222 10.6562 1.2329C10.3593 1.40356 10.0945 1.62488 9.87388 1.88685C9.68832 2.09614 9.53308 2.33045 9.41269 2.58292C9.28471 2.86149 9.19698 3.15684 9.15214 3.46011L9.15008 3.45977Z" fill="#644F78"/>
<path fill-rule="evenodd" clip-rule="evenodd" d="M15.5534 7.43704C14.7097 7.43704 13.8459 7.43704 13.0005 7.43704C12.9501 7.43945 12.8999 7.44691 12.8509 7.4593C12.8003 7.47299 12.7913 7.61406 12.7927 7.73321C12.7818 8.17312 12.8558 8.61101 13.0105 9.02297C13.0669 9.17425 13.1536 9.31242 13.2652 9.42903C13.3197 9.48397 13.3851 9.52696 13.4571 9.55525C13.5291 9.58355 13.6063 9.59653 13.6836 9.59338C13.8863 9.60435 14.087 9.54828 14.2547 9.43383C14.4547 9.28961 14.604 9.0859 14.6813 8.85177C14.6943 8.8148 14.7245 8.73605 14.784 8.7357C14.9925 8.73103 15.2011 8.7411 15.4082 8.76584C15.4452 8.77063 15.5109 8.78706 15.527 8.82165C15.5483 8.89038 15.5508 8.96356 15.5342 9.03358C15.4936 9.21577 15.4283 9.39156 15.3401 9.55606C15.2407 9.73463 15.1036 9.88943 14.9384 10.0097C14.5579 10.2524 14.1127 10.3739 13.6617 10.3583C13.1769 10.3519 12.6988 10.2444 12.2579 10.0426C11.8028 9.76706 11.4499 9.35086 11.2523 8.85691C11.0527 8.2809 10.9781 7.669 11.0333 7.0619C11.0885 6.4548 11.2723 5.8664 11.5725 5.33583C11.8214 4.95393 12.1839 4.65981 12.6089 4.49493C12.8666 4.40325 13.1376 4.35455 13.4111 4.35079C13.6929 4.35206 13.9727 4.39829 14.24 4.48774C14.5727 4.58585 14.863 4.79243 15.0648 5.07459C15.3042 5.46583 15.4584 5.90325 15.5171 6.35819C15.5664 6.71559 15.5786 7.07714 15.5534 7.43704ZM12.8023 6.57937C12.7931 6.32602 12.7985 6.07235 12.8184 5.81962C12.8265 5.63306 12.8654 5.44912 12.9334 5.27523C12.9791 5.17149 13.055 5.08391 13.1512 5.02392C13.2304 4.9852 13.3178 4.9664 13.4059 4.96913C13.4915 4.96608 13.5766 4.98296 13.6545 5.01844C13.7483 5.06685 13.8253 5.14252 13.8753 5.23551C13.9423 5.3974 13.9807 5.56965 13.989 5.74464C13.9962 5.82304 13.9965 6.52425 13.9962 6.57937H12.8023ZM35.6804 7.45724C34.8368 7.45724 33.9374 7.45724 33.092 7.45724C33.0442 7.45328 32.9962 7.45994 32.9513 7.47676C32.9092 7.50757 32.9033 7.68459 32.9047 7.80442C32.8905 8.22392 32.9611 8.64197 33.1122 9.03358C33.1686 9.18486 33.2553 9.32304 33.3669 9.43965C33.4215 9.4946 33.4869 9.53758 33.559 9.56588C33.6311 9.59417 33.7083 9.60715 33.7857 9.60399C33.9884 9.61496 34.1891 9.55889 34.3568 9.44444C34.5573 9.29719 34.7072 9.0913 34.7858 8.8552C34.7988 8.81822 34.8286 8.73947 34.8885 8.73913C35.1047 8.73665 35.3208 8.74912 35.5353 8.77645C35.5722 8.78158 35.638 8.79768 35.6537 8.83192C35.6752 8.90062 35.6777 8.97385 35.6609 9.04385C35.6139 9.23773 35.5423 9.42481 35.4479 9.60057C35.3411 9.77722 35.1978 9.92898 35.0275 10.0457C34.6473 10.2839 34.2034 10.4002 33.7552 10.3792C33.2689 10.3709 32.7897 10.2619 32.3477 10.059C31.8987 9.79591 31.55 9.39079 31.3568 8.90758C31.1518 8.41147 31.0646 7.8746 31.1021 7.33912C31.1001 6.65879 31.2829 5.99069 31.6307 5.40602C31.8769 4.98827 32.2607 4.66918 32.7164 4.50349C32.9755 4.41718 33.2457 4.36863 33.5186 4.35935C33.8005 4.36054 34.0803 4.40678 34.3475 4.4963C34.6884 4.60248 34.9859 4.81572 35.196 5.10438C35.4334 5.51133 35.5849 5.96264 35.6411 6.43043C35.691 6.76961 35.7038 7.11324 35.6791 7.45519L35.6804 7.45724ZM32.9123 6.58108C32.903 6.32773 32.9084 6.07406 32.9283 5.82133C32.9366 5.63475 32.9756 5.45082 33.0437 5.27694C33.0892 5.17306 33.1651 5.08542 33.2615 5.02563C33.3405 4.9869 33.4279 4.9681 33.5159 4.97085C33.6014 4.96763 33.6866 4.98451 33.7644 5.02015C33.8583 5.06849 33.9353 5.14419 33.9853 5.23722C34.0522 5.39913 34.0908 5.57136 34.0993 5.74635C34.1061 5.82475 34.1065 6.52596 34.1065 6.58108H32.9123ZM20.8877 4.76336C20.8908 4.71714 20.9517 4.68975 21.0452 4.66715C21.1444 4.64867 21.2381 4.6078 21.3191 4.54766C21.3742 4.50577 21.4202 4.45318 21.4545 4.39305C21.4887 4.33291 21.5105 4.26648 21.5184 4.19774C21.5293 3.80777 21.5331 3.57905 21.5376 3.19079C21.5376 3.0624 21.592 2.87682 21.6516 2.85183C21.8691 2.76696 22.0985 2.71648 22.3315 2.70221C22.5445 2.67858 22.9602 2.64195 22.9978 2.73474C23.0382 2.86524 23.0499 3.00295 23.0321 3.1384C23.0338 3.5883 23.0338 4.07038 23.0341 4.52986H26.0382C26.07 4.52986 26.0892 4.5843 26.0892 4.6134C26.0892 4.69078 26.0892 4.80958 26.0865 4.90682C26.0872 4.93039 26.0821 4.95378 26.0717 4.97493C26.0612 4.99607 26.0457 5.0143 26.0266 5.02803C25.9509 5.07664 25.9047 5.11088 25.8259 5.17217C25.7937 5.19716 25.7975 5.23859 25.8095 5.2831L26.571 7.87221C26.8363 7.06487 27.1188 6.24212 27.3855 5.43512C27.3953 5.40945 27.3956 5.3811 27.3862 5.35525C27.3768 5.32941 27.3585 5.30781 27.3345 5.2944C27.1858 5.19392 27.0247 5.11335 26.8551 5.05473C26.8154 5.03898 26.7935 4.97496 26.7867 4.93216C26.771 4.82384 26.7764 4.71353 26.8024 4.60723C26.8133 4.58725 26.8284 4.56991 26.8468 4.55648C26.8651 4.54304 26.8862 4.53383 26.9085 4.52951C27.5358 4.53157 28.5472 4.52951 28.7971 4.52951C28.8389 4.52951 28.9111 4.55622 28.9235 4.59799C28.9477 4.73351 28.9555 4.87146 28.9468 5.00885C28.9428 5.03435 28.932 5.05829 28.9155 5.07808C28.899 5.09788 28.8773 5.11277 28.8529 5.12115C28.7371 5.12299 28.6235 5.15371 28.5225 5.21052C28.4448 5.26249 28.3878 5.34001 28.3613 5.42964L26.3909 11.105C26.2259 11.4404 25.9797 11.7293 25.6746 11.9452C25.3499 12.1578 24.9724 12.2755 24.5844 12.2852C24.424 12.2922 24.2639 12.2652 24.1147 12.2058C23.9655 12.1464 23.8306 12.0561 23.7189 11.9408C23.6591 11.839 23.6351 11.7201 23.6508 11.6031C23.6666 11.4861 23.721 11.3778 23.8055 11.2954C23.8932 11.2181 23.9959 11.16 24.1073 11.1246C24.2186 11.0892 24.3361 11.0774 24.4523 11.0899C24.6417 11.0799 24.8294 11.1307 24.9878 11.2351C25.0526 11.2852 25.1135 11.3403 25.1699 11.3998C25.3844 11.2935 25.5574 11.1188 25.6616 10.9033C25.7471 10.6986 25.7925 10.4794 25.7954 10.2576L24.0445 5.22113H23.0019L23.0327 9.3585C23.0327 9.46122 23.1697 9.58756 23.2635 9.6283C23.3964 9.6945 23.5427 9.72962 23.6912 9.73102C23.8054 9.724 23.9201 9.72812 24.0335 9.74334C24.065 9.7608 24.075 9.83579 24.0815 9.87516C24.0937 9.91676 24.0958 9.9607 24.0874 10.0033C24.0791 10.0458 24.0606 10.0857 24.0335 10.1196C23.8435 10.274 23.6166 10.3763 23.3751 10.4165C23.0084 10.4787 22.6342 10.484 22.2658 10.4322C21.9995 10.4028 21.7511 10.2839 21.5612 10.095C21.4183 9.88902 21.3501 9.64038 21.3681 9.39034C21.3681 8.02081 21.3681 6.61943 21.3681 5.25058C21.2229 5.2338 21.0569 5.21839 20.9124 5.20435C20.8911 5.2023 20.8781 5.18415 20.8781 5.14683C20.8798 4.99447 20.8781 4.90922 20.8867 4.76508L20.8877 4.76336Z" fill="#644F78"/>
<path fill-rule="evenodd" clip-rule="evenodd" d="M28.8818 0.896239C29.1517 0.834535 29.4268 0.798424 29.7035 0.788387C29.8405 0.783594 30.1171 0.788387 30.2886 0.788387C30.4213 0.785169 30.554 0.792612 30.6855 0.810643C30.783 0.838376 30.8091 0.981836 30.8091 1.08044C30.8091 3.86026 30.8091 6.5086 30.8091 9.29356C30.8024 9.38659 30.8179 9.47987 30.8543 9.56575C30.8986 9.63995 30.9627 9.70031 31.0395 9.74003C31.0867 9.76879 31.199 9.78728 31.2172 9.865C31.2449 9.98346 31.222 10.2101 31.1045 10.2416C31.085 10.2468 30.8854 10.2468 30.7645 10.2468C30.1051 10.2468 29.4635 10.2502 28.79 10.2485C28.7613 10.2485 28.7215 10.1629 28.7188 10.1345C28.7131 10.0453 28.7125 9.95592 28.7171 9.86671C28.7251 9.82156 28.7495 9.78096 28.7856 9.7527C28.8963 9.7035 28.9999 9.63971 29.0937 9.56301C29.1295 9.53344 29.1575 9.49561 29.1754 9.45278C29.1933 9.40995 29.2005 9.36342 29.1964 9.31718C29.1964 6.76197 29.1937 4.27489 29.1964 1.71283C29.1951 1.67911 29.1858 1.6462 29.1691 1.61684C29.1525 1.58748 29.1291 1.56251 29.1009 1.54403C28.9924 1.46734 28.827 1.48754 28.7345 1.3903C28.7014 1.33755 28.6802 1.27825 28.6722 1.21648C28.6642 1.15471 28.6697 1.09194 28.6883 1.03251C28.7048 0.994135 28.7316 0.961084 28.7658 0.937028C28.7999 0.912973 28.8401 0.898855 28.8818 0.896239ZM18.2141 0.669922C18.4397 0.672363 18.6642 0.701907 18.8828 0.757916C19.0502 0.799687 19.2125 0.871588 19.3823 0.929108C19.4042 0.937512 19.4274 0.941919 19.4508 0.942119C19.4721 0.941178 19.4928 0.934559 19.5107 0.922946C19.5937 0.873135 19.6854 0.839447 19.7809 0.823654C19.8943 0.806441 20.0098 0.806441 20.1232 0.823654C20.1684 0.822214 20.2132 0.832646 20.2531 0.853914C20.293 0.875181 20.3266 0.906539 20.3506 0.944857C20.3506 1.65873 20.3506 2.33596 20.3506 3.03717C20.1949 3.07291 20.0357 3.09071 19.876 3.09024C19.8051 3.09098 19.7348 3.07564 19.6706 3.04539C19.6143 3.01565 19.5701 2.96722 19.5456 2.90843C19.446 2.65438 19.3851 2.37842 19.2892 2.1343C19.2011 1.87867 19.0364 1.65641 18.8174 1.49781C18.6342 1.38673 18.4236 1.32899 18.2093 1.33107C18.1038 1.33154 17.9985 1.34301 17.8953 1.36531C17.7619 1.38957 17.6359 1.44471 17.5275 1.52633C17.4191 1.60796 17.3314 1.7138 17.2712 1.8354C17.1612 2.09616 17.131 2.38364 17.1842 2.66157C17.2208 2.87768 17.3091 3.08173 17.4417 3.25629C17.6254 3.48957 17.8319 3.70404 18.058 3.89655C18.1522 3.97379 18.2505 4.04591 18.3524 4.1126C18.6948 4.36973 19.042 4.61898 19.3721 4.8905C19.6901 5.13855 19.992 5.40661 20.2759 5.69305C20.4809 5.90952 20.6589 6.15003 20.806 6.40931C20.9116 6.60904 20.9928 6.8208 21.0477 7.03998C21.085 7.1609 21.1058 7.28633 21.1093 7.41284C21.1258 7.83115 21.0896 8.24987 21.0015 8.65912C20.8846 9.00546 20.693 9.32188 20.4403 9.58595C20.209 9.84253 19.9318 10.0536 19.623 10.2084C19.2722 10.375 18.8869 10.4562 18.4986 10.4453C18.13 10.436 17.7639 10.3829 17.4078 10.2872C17.2438 10.2444 17.1147 10.1844 16.9521 10.1345C16.9218 10.128 16.8903 10.1299 16.861 10.1399C16.758 10.1954 16.6468 10.2341 16.5316 10.2546C16.41 10.2722 16.2867 10.2754 16.1643 10.2642C16.0836 10.258 16.0056 10.2325 15.9369 10.1899C15.9202 10.1791 15.9062 10.1647 15.8959 10.1476C15.8856 10.1306 15.8794 10.1115 15.8777 10.0917V7.74632C15.8795 7.73158 15.8856 7.71768 15.8951 7.70627C15.9047 7.69486 15.9173 7.68642 15.9314 7.68196C16.0018 7.6588 16.0751 7.64589 16.1492 7.64361C16.287 7.63188 16.4258 7.6367 16.5624 7.65799C16.6186 7.67066 16.6696 7.75146 16.6922 7.80487C16.861 8.21026 17.024 8.59235 17.1736 8.99158C17.2643 9.20267 17.4103 9.38542 17.5961 9.52056C17.8273 9.66553 18.0969 9.73715 18.3695 9.72599C18.6393 9.73257 18.9045 9.65581 19.129 9.50618C19.232 9.43333 19.3252 9.34748 19.4063 9.25076C19.5133 9.12989 19.5891 8.98457 19.6268 8.82757C19.651 8.71575 19.665 8.60195 19.6686 8.48759C19.6701 8.37145 19.6639 8.25535 19.6497 8.14006C19.6255 7.91247 19.5533 7.69262 19.4378 7.49501C19.3476 7.3411 19.2378 7.19954 19.1112 7.07388C18.7902 6.77448 18.4513 6.49492 18.0963 6.23675C17.6395 5.90364 17.2049 5.54108 16.7953 5.15139C16.5114 4.86796 16.2686 4.54619 16.0739 4.19546C16.0061 4.06209 15.9566 3.92021 15.9266 3.77364C15.889 3.63683 15.8646 3.49672 15.8537 3.35524C15.8286 3.08194 15.8432 2.80644 15.8968 2.53729C15.9886 2.11719 16.1767 1.72417 16.4464 1.38927C16.6618 1.14768 16.9355 0.965224 17.2414 0.859261C17.5507 0.736541 17.8803 0.673013 18.2131 0.671978L18.2141 0.669922ZM37.099 4.52962C37.4759 4.39278 37.8757 4.32978 38.2765 4.34405C38.7079 4.3471 39.1329 4.44924 39.5186 4.64261C39.635 4.70979 39.7362 4.80042 39.8157 4.90875C39.8952 5.01708 39.9513 5.14075 39.9805 5.27191C39.9995 5.37769 39.9923 5.48652 39.9595 5.58888C39.9268 5.69124 39.8694 5.78402 39.7925 5.8591C39.6167 5.99643 39.395 6.06157 39.1728 6.04125C38.947 6.04162 38.7272 5.96882 38.5463 5.83376C38.4959 5.78646 38.4585 5.72691 38.438 5.66091C38.4174 5.59492 38.4142 5.52472 38.4288 5.45714C38.4622 5.32038 38.536 5.19686 38.6408 5.10277C38.6832 5.061 38.6938 5.02231 38.638 4.97609C38.5431 4.92276 38.4382 4.88976 38.3299 4.8792C38.117 4.84361 37.8984 4.86548 37.6968 4.94254C37.6031 4.97709 37.5182 5.0318 37.4479 5.1028C37.3777 5.17379 37.3239 5.25934 37.2904 5.3534C37.2605 5.44106 37.2512 5.53446 37.2634 5.6263C37.2756 5.71813 37.3088 5.8059 37.3606 5.88273C37.5481 6.11766 37.7825 6.31098 38.0488 6.4504C38.3326 6.62365 38.6096 6.76642 38.8917 6.92974C39.2387 7.11863 39.5622 7.34753 39.8559 7.61177C39.9951 7.73885 40.1057 7.89421 40.1801 8.06745C40.2545 8.24069 40.291 8.42782 40.2873 8.61632C40.2403 8.99034 40.0846 9.34236 39.8394 9.62875C39.6392 9.86232 39.3828 10.0411 39.0944 10.1481C38.769 10.2781 38.4247 10.3544 38.0748 10.3741C37.7025 10.4183 37.3255 10.3998 36.9593 10.3193C36.6425 10.24 36.3518 10.0797 36.1157 9.85404C35.9277 9.66775 35.8175 9.41697 35.8075 9.1525C35.7987 9.0607 35.8139 8.96818 35.8518 8.88411C35.8897 8.80003 35.9489 8.72731 36.0236 8.67316C36.2171 8.53428 36.4507 8.46217 36.6888 8.46773C36.9148 8.45289 37.1404 8.5024 37.3394 8.6105C37.403 8.65868 37.4555 8.72008 37.4932 8.79047C37.5309 8.86086 37.553 8.93857 37.5578 9.01828C37.5636 9.08924 37.5525 9.16056 37.5255 9.22643C37.4985 9.2923 37.4563 9.35085 37.4024 9.3973C37.39 9.41168 37.3582 9.4425 37.3428 9.46064C37.3331 9.47797 37.3306 9.49838 37.3357 9.51755C37.3408 9.53672 37.3532 9.55315 37.3702 9.56336C37.556 9.66803 37.7656 9.72331 37.9789 9.72394C38.2243 9.73839 38.4681 9.67707 38.6774 9.54829C38.7759 9.50231 38.8589 9.42859 38.9162 9.33615C38.9735 9.24372 39.0026 9.13658 38.9999 9.02787C38.9691 8.87402 38.9075 8.72799 38.8189 8.59855C38.7302 8.46911 38.6163 8.35892 38.4839 8.27462C38.0659 7.98633 37.615 7.80247 37.1949 7.54397C36.8241 7.33989 36.4951 7.06774 36.2252 6.74177C36.1159 6.60234 36.0401 6.4396 36.0038 6.26617C35.9674 6.09273 35.9715 5.91326 36.0157 5.74166C36.0545 5.48693 36.1609 5.24726 36.3238 5.04765C36.5356 4.81425 36.8017 4.63687 37.0987 4.53133L37.099 4.52962Z" fill="#644F78"/>
<path fill-rule="evenodd" clip-rule="evenodd" d="M0.0488281 11.5117H23.3501C23.369 11.9551 23.4761 12.1307 23.6925 12.254H0.0488281V11.5117ZM26.4833 11.5117H41.6852V12.254H25.6431C25.9819 12.0823 26.2712 11.8268 26.4833 11.5117Z" fill="#CC2229"/>
<path fill-rule="evenodd" clip-rule="evenodd" d="M40.8385 1.83105C40.9989 1.83105 41.1557 1.87862 41.2891 1.96775C41.4225 2.05688 41.5264 2.18356 41.5878 2.33177C41.6492 2.47998 41.6653 2.64306 41.634 2.8004C41.6027 2.95774 41.5254 3.10227 41.412 3.2157C41.2986 3.32914 41.154 3.40639 40.9967 3.43769C40.8393 3.46898 40.6763 3.45292 40.5281 3.39153C40.3798 3.33014 40.2532 3.22618 40.164 3.09279C40.0749 2.9594 40.0273 2.80259 40.0273 2.64216C40.0278 2.42718 40.1134 2.22114 40.2654 2.06912C40.4174 1.91711 40.6235 1.83151 40.8385 1.83105ZM40.8385 1.99814C40.9654 1.99814 41.0895 2.03579 41.1951 2.10633C41.3007 2.17687 41.383 2.27713 41.4316 2.39444C41.4801 2.51174 41.4929 2.64082 41.4681 2.76535C41.4433 2.88988 41.3822 3.00427 41.2924 3.09405C41.2026 3.18383 41.0882 3.24497 40.9637 3.26974C40.8392 3.29452 40.7101 3.2818 40.5928 3.23321C40.4755 3.18462 40.3752 3.10234 40.3047 2.99677C40.2341 2.8912 40.1965 2.76708 40.1965 2.64011C40.1964 2.55561 40.213 2.47193 40.2454 2.39386C40.2777 2.31579 40.3251 2.24485 40.3848 2.1851C40.4446 2.12535 40.5155 2.07796 40.5936 2.04565C40.6716 2.01333 40.7553 1.99672 40.8398 1.99677L40.8385 1.99814ZM40.5348 3.08589V2.21418H40.8881C40.9431 2.21172 40.998 2.21974 41.05 2.23781C41.0883 2.25431 41.1197 2.2836 41.1387 2.32066C41.1614 2.36063 41.1732 2.40585 41.173 2.4518C41.1747 2.5089 41.1551 2.56459 41.1178 2.60792C41.0726 2.65496 41.0117 2.68372 40.9466 2.68873C40.9697 2.7 40.991 2.71452 41.01 2.73187C41.0439 2.76673 41.0735 2.80559 41.098 2.84759L41.2349 3.08452H41.1024L40.9966 2.90375C40.9738 2.86266 40.9485 2.82271 40.9206 2.78391C40.906 2.76174 40.8878 2.74209 40.8669 2.7257C40.8524 2.71511 40.8362 2.70722 40.8189 2.70242C40.7995 2.69901 40.7798 2.69763 40.76 2.69831H40.6375V3.08418H40.5327L40.5348 3.08589ZM40.6399 2.59971H40.8669C40.9052 2.60132 40.9435 2.59574 40.9799 2.58327C41.0058 2.57337 41.0276 2.55504 41.0418 2.53123C41.0556 2.50752 41.0628 2.48058 41.0627 2.45317C41.0634 2.43413 41.0601 2.41516 41.053 2.39748C41.0459 2.37979 41.0352 2.36377 41.0216 2.35045C40.9857 2.3211 40.9398 2.30675 40.8936 2.31039H40.6416L40.6399 2.59971Z" fill="#644F78"/>
</svg>
