<svg width="61" height="12" viewBox="0 0 61 12" fill="none" xmlns="http://www.w3.org/2000/svg">
<path d="M8.16154 5.9134C8.15978 5.73322 8.08708 5.561 7.95919 5.43406C7.89842 5.36779 7.82426 5.3152 7.74162 5.27979C7.65897 5.24437 7.56974 5.22693 7.47985 5.22863C7.39014 5.22818 7.30129 5.24619 7.21883 5.28153C7.13637 5.31687 7.06206 5.36879 7.00051 5.43406C6.93881 5.49748 6.89028 5.57249 6.85773 5.65476C6.82517 5.73703 6.80923 5.82493 6.81083 5.9134C6.80822 6.00358 6.82365 6.09338 6.85622 6.17752C6.8888 6.26166 6.93785 6.33844 7.00051 6.40335C7.06192 6.46881 7.1362 6.52085 7.21869 6.5562C7.30119 6.59156 7.3901 6.60946 7.47985 6.60878C7.56975 6.61053 7.65899 6.59311 7.74164 6.55769C7.82429 6.52226 7.89845 6.46966 7.95919 6.40335C8.02371 6.33917 8.07482 6.26281 8.10956 6.17869C8.1443 6.09458 8.16197 6.0044 8.16154 5.9134Z" fill="#E91E23"/>
<path d="M18.2286 5.53827C18.0995 5.41409 17.9273 5.34473 17.7481 5.34473C17.5689 5.34473 17.3967 5.41409 17.2676 5.53827C17.1457 5.67253 17.0781 5.84738 17.0781 6.02873C17.0781 6.21008 17.1457 6.38493 17.2676 6.5192C17.3963 6.64324 17.5681 6.71268 17.7469 6.71299C17.8356 6.71393 17.9237 6.69729 18.006 6.66403C18.0882 6.63077 18.1631 6.58154 18.2262 6.5192C18.3556 6.38876 18.4282 6.21247 18.4282 6.02873C18.4282 5.845 18.3556 5.6687 18.2262 5.53827H18.2286Z" fill="#02B2E7"/>
<path d="M24.2248 5.58934C24.164 5.52305 24.0899 5.47045 24.0072 5.43503C23.9246 5.39961 23.8354 5.38218 23.7455 5.38391C23.6557 5.38339 23.5669 5.40137 23.4844 5.43672C23.4019 5.47206 23.3276 5.52401 23.2661 5.58934C23.2046 5.65253 23.1562 5.72725 23.1236 5.80922C23.0911 5.89119 23.075 5.97878 23.0764 6.06696C23.0739 6.15729 23.0894 6.24722 23.122 6.33151C23.1545 6.4158 23.2035 6.49277 23.2661 6.55794C23.3276 6.62328 23.4019 6.67525 23.4844 6.71059C23.5669 6.74594 23.6557 6.7639 23.7455 6.76337C23.8353 6.76503 23.9246 6.74757 24.0072 6.71215C24.0898 6.67674 24.164 6.62418 24.2248 6.55794C24.2892 6.49347 24.3402 6.41691 24.375 6.33265C24.4097 6.24839 24.4274 6.1581 24.4271 6.06696C24.4253 5.88731 24.3526 5.71566 24.2248 5.58934Z" fill="#FABC16"/>
<path d="M33.1806 6.24001C33.1835 6.05798 33.1153 5.882 32.9906 5.74938C32.8628 5.62238 32.6913 5.54891 32.5112 5.54395C32.3306 5.54652 32.1583 5.62036 32.0319 5.74938C31.9073 5.88206 31.8391 6.058 31.8419 6.24001C31.8415 6.4216 31.9093 6.59672 32.0319 6.73065C32.0951 6.79295 32.1699 6.8421 32.2522 6.87525C32.3345 6.90839 32.4225 6.92488 32.5112 6.92376C32.69 6.92371 32.8617 6.85451 32.9906 6.73065C33.1133 6.59677 33.1811 6.42162 33.1806 6.24001Z" fill="#E91E23"/>
<path d="M42.5274 5.62828C42.3995 5.50131 42.2281 5.42785 42.048 5.42285C41.8674 5.42542 41.6951 5.49926 41.5687 5.62828C41.4441 5.761 41.3761 5.93695 41.379 6.11892C41.3784 6.30047 41.4461 6.47561 41.5687 6.60956C41.6319 6.67183 41.7067 6.72095 41.789 6.7541C41.8713 6.78725 41.9593 6.80375 42.048 6.80266C42.2267 6.80243 42.3984 6.73326 42.5274 6.60956C42.6499 6.47562 42.7176 6.30048 42.717 6.11892C42.7199 5.93694 42.6519 5.76098 42.5274 5.62828Z" fill="#FABC16"/>
<path d="M53.3021 5.56512C53.2437 5.49899 53.1717 5.44635 53.0909 5.41088C53.0101 5.3754 52.9226 5.35794 52.8344 5.35969C52.7443 5.35681 52.6547 5.37371 52.5719 5.4092C52.4891 5.4447 52.4151 5.49792 52.3551 5.56512C52.2895 5.62592 52.2376 5.69992 52.2027 5.78225C52.1678 5.86457 52.1508 5.95336 52.1527 6.04275C52.1496 6.13427 52.166 6.22541 52.2009 6.31008C52.2358 6.39474 52.2883 6.47099 52.3551 6.53373C52.4151 6.60093 52.4891 6.65415 52.5719 6.68964C52.6547 6.72513 52.7443 6.74204 52.8344 6.73916C52.9226 6.74093 53.0101 6.72348 53.0909 6.688C53.1717 6.65252 53.2438 6.59988 53.3021 6.53373C53.3689 6.47103 53.4215 6.39479 53.4563 6.31011C53.4912 6.22544 53.5077 6.13428 53.5045 6.04275C53.5063 5.95337 53.4892 5.86462 53.4543 5.78231C53.4195 5.7 53.3676 5.62598 53.3021 5.56512Z" fill="#02B2E7"/>
<path d="M29.2779 3.74188V3.35464C28.9243 3.22657 28.5456 3.18323 28.1722 3.22813C27.7988 3.27303 27.4412 3.4049 27.1281 3.61314C26.866 3.77352 26.6621 4.01345 26.546 4.29791L26.116 5.29083C26.0184 5.51412 25.9751 5.75735 25.9896 6.00059C25.9953 6.24324 25.9524 6.48457 25.8633 6.71035C25.7555 7.17549 25.713 7.65336 25.737 8.13022C26.4244 8.06606 27.1055 7.94536 27.7731 7.76935C28.4278 7.612 29.0323 7.29231 29.5309 6.83978C29.1011 6.85194 28.6753 6.92586 28.2665 7.05924L27.0014 7.48517C26.8971 7.49323 26.7929 7.46766 26.7042 7.4122C26.6155 7.35675 26.5468 7.27433 26.5083 7.17702C26.4654 7.0843 26.4421 6.9837 26.4398 6.88153C26.4376 6.77937 26.4565 6.67784 26.4953 6.58333C26.6126 6.37454 26.7526 6.17934 26.9127 6.00128C27.005 5.90809 27.1204 5.84108 27.2471 5.8071C27.3738 5.77311 27.5072 5.77336 27.6338 5.80783C27.6718 5.80783 27.7098 5.75613 27.7601 5.67875C27.7981 5.58836 27.8358 5.54967 27.8865 5.54967L28.2405 5.58836C28.3795 5.61404 28.4682 5.60137 28.5185 5.54967C28.6949 5.44606 28.8869 5.37193 29.0872 5.3302C29.3002 5.28433 29.4968 5.18177 29.6562 5.03335H27.127C27.0871 5.03681 27.047 5.02902 27.0112 5.01086C26.9755 4.99271 26.9455 4.96493 26.9247 4.93064C26.8893 4.854 26.8805 4.76771 26.8997 4.68549C26.9095 4.5873 26.9485 4.49428 27.0116 4.41839C27.0747 4.3425 27.159 4.28719 27.2537 4.25957C27.906 4.00868 28.5853 3.83494 29.2779 3.74188ZM29.8473 5.09396L29.6573 5.11964H29.8969L29.8473 5.09396ZM29.898 5.11964L30.037 5.15832C30.0966 5.19148 30.1649 5.20555 30.2327 5.19863C30.3006 5.19171 30.3647 5.16414 30.4163 5.11964H29.898Z" fill="black"/>
<path d="M29.6572 5.03271H29.8969M29.6572 5.03271L29.8465 5.00703L29.8969 5.03271M29.6572 5.03271H27.1277C27.0877 5.03616 27.0476 5.02837 27.0118 5.01022C26.9761 4.99207 26.9461 4.96428 26.9253 4.92999C26.8899 4.85335 26.8811 4.76706 26.9003 4.68485C26.9101 4.58665 26.9491 4.49364 27.0122 4.41775C27.0753 4.34185 27.1596 4.28655 27.2543 4.25892C27.9065 4.0088 28.5856 3.83553 29.2778 3.7426V3.35468C28.9242 3.22658 28.5455 3.18323 28.1722 3.22813C27.7988 3.27302 27.4411 3.40491 27.128 3.61318C26.8659 3.77354 26.662 4.01347 26.546 4.29795L26.1159 5.29087C26.0183 5.51416 25.975 5.75738 25.9896 6.00063C25.9953 6.24328 25.9523 6.48461 25.8632 6.71039C25.7556 7.17508 25.7131 7.65249 25.7369 8.12889C26.4244 8.06473 27.1054 7.94403 27.7731 7.76802C28.4277 7.61064 29.0323 7.29095 29.5309 6.83844C29.101 6.85061 28.6752 6.92453 28.2664 7.05791L27.002 7.48384C26.8977 7.49195 26.7935 7.4664 26.7048 7.41094C26.616 7.35548 26.5474 7.27303 26.509 7.17569C26.466 7.08292 26.4426 6.98226 26.4404 6.88003C26.4382 6.77781 26.4571 6.67622 26.496 6.58166C26.6132 6.37286 26.7532 6.17765 26.9133 5.9996C27.0056 5.90642 27.121 5.83941 27.2477 5.80542C27.3744 5.77144 27.5078 5.77169 27.6344 5.80615C27.6724 5.80615 27.7104 5.75446 27.7607 5.67708C27.7987 5.58669 27.8364 5.548 27.8871 5.548L28.2411 5.58669C28.3801 5.61237 28.4688 5.5997 28.5191 5.548C28.6955 5.44439 28.8876 5.37025 29.0878 5.32853C29.3008 5.28267 29.4974 5.18011 29.6569 5.03168M29.8969 5.03271L30.0359 5.0714C30.0955 5.1045 30.1638 5.11854 30.2316 5.11163C30.2994 5.10471 30.3635 5.07717 30.4152 5.03271H29.8969Z" stroke="black" stroke-width="2" stroke-miterlimit="2.613" stroke-linecap="round" stroke-linejoin="round"/>
<path d="M39.4342 3.96468C39.4518 3.80821 39.4944 3.65559 39.5606 3.51273C39.6296 3.37093 39.6724 3.21782 39.6869 3.06078C39.724 2.9674 39.7753 2.88032 39.839 2.80262L40.016 2.5318C40.082 2.44135 40.1217 2.33438 40.1306 2.22276C40.1395 2.11114 40.1174 1.99922 40.0666 1.89941C39.9403 2.28665 39.7126 2.86768 39.3712 3.64215C39.0299 4.41662 38.8022 4.99731 38.6759 5.38489L38.4225 6.08198C38.3959 6.13824 38.3581 6.18847 38.3113 6.22958C38.2646 6.27069 38.21 6.30182 38.1508 6.32106C38.0916 6.3403 38.0291 6.34724 37.9672 6.34145C37.9052 6.33566 37.8451 6.31727 37.7905 6.28741C37.1223 6.0376 36.548 5.5866 36.147 4.99662L35.7673 4.23482C35.6156 3.96399 35.4893 3.86059 35.3876 3.96399C34.9704 4.44964 34.7186 5.05544 34.6686 5.69372L34.5039 7.70728C34.6066 7.70728 34.6563 7.77165 34.6686 7.88806L34.6939 7.97879C34.707 8.00447 34.7319 8.00447 34.7569 7.96578C34.8811 7.74639 34.9624 7.50541 34.9966 7.25568L35.1106 6.46819C35.1178 6.25486 35.165 6.04476 35.2496 5.84882C35.2811 5.77441 35.3374 5.71324 35.409 5.67577C35.4806 5.6383 35.5629 5.62685 35.642 5.64339C35.8897 5.6503 36.1306 5.72632 36.3374 5.86286C36.5692 6.00224 36.7817 6.17145 36.9694 6.36616L37.6018 7.0119C37.812 7.22626 38.0454 7.41665 38.2975 7.57957C38.5506 7.57957 38.6769 7.54088 38.6769 7.45049C38.6859 6.86278 38.7623 6.27804 38.9046 5.70776C39.0057 5.31972 39.1826 4.73881 39.4353 3.96502L39.4342 3.96468Z" fill="black"/>
<path d="M39.5599 3.51273C39.6289 3.37093 39.6717 3.21782 39.6862 3.06078C39.7233 2.9674 39.7746 2.88032 39.8383 2.80262L40.0153 2.5318C40.0813 2.44135 40.121 2.33438 40.1299 2.22276C40.1389 2.11114 40.1167 1.99922 40.0659 1.89941C39.9396 2.28665 39.7119 2.86768 39.3706 3.64215C39.0292 4.41662 38.8015 4.99731 38.6752 5.38489L38.4218 6.08198C38.3952 6.13824 38.3574 6.18847 38.3107 6.22958C38.2639 6.27069 38.2093 6.30182 38.1501 6.32106C38.0909 6.3403 38.0284 6.34723 37.9665 6.34145C37.9045 6.33566 37.8444 6.31727 37.7898 6.28741C37.1216 6.03758 36.5474 5.58659 36.1463 4.99662L35.7666 4.23482C35.6149 3.96399 35.4886 3.86059 35.3873 3.96399C34.9701 4.44964 34.7183 5.05544 34.6682 5.69372L34.5039 7.70728C34.6066 7.70728 34.6563 7.77165 34.6682 7.88772L34.6936 7.97845C34.7066 8.00413 34.7316 8.00413 34.7566 7.96544C34.8807 7.74605 34.9621 7.50508 34.9963 7.25533L35.1103 6.46785C35.1175 6.25452 35.1646 6.04443 35.2493 5.84848C35.2807 5.77407 35.3371 5.7129 35.4086 5.67543C35.4802 5.63796 35.5626 5.62651 35.6416 5.64304C35.8894 5.64998 36.1302 5.72599 36.337 5.86251C36.5689 6.00187 36.7814 6.17109 36.9691 6.36582L37.6015 7.01156C37.8116 7.22589 38.0448 7.41628 38.2968 7.57923C38.5499 7.57923 38.6762 7.54054 38.6762 7.45015C38.6852 6.86244 38.7616 6.2777 38.9039 5.70741C39.0052 5.31938 39.1822 4.73858 39.4349 3.96502C39.4525 3.80853 39.4953 3.65592 39.5616 3.51307" stroke="black" stroke-width="2" stroke-miterlimit="2.613" stroke-linecap="round" stroke-linejoin="round"/>
<path d="M49.6615 5.6796C49.7383 5.36024 49.7322 5.02653 49.6436 4.71022C49.555 4.39391 49.387 4.10553 49.1555 3.8725C48.9167 3.66135 48.6342 3.50558 48.3282 3.41632C48.0222 3.32707 47.7002 3.30653 47.3854 3.35618L46.324 3.23977C46.0058 3.19048 45.6823 3.1861 45.3629 3.22676C45.4593 3.84599 45.385 4.47979 45.1479 5.05989L44.4778 6.71223C44.3191 6.99924 44.274 7.33543 44.3515 7.65413L44.6045 8.51934H44.8575V7.74487C44.8559 7.72149 44.8626 7.6983 44.8766 7.67947C44.8905 7.66063 44.9107 7.6474 44.9335 7.64215L45.1105 7.61647C45.7266 7.39817 46.3616 7.2377 47.0074 7.13713C47.6628 7.0439 48.3016 6.85735 48.9042 6.58315C49.0909 6.44933 49.2645 6.298 49.4225 6.13121C49.5478 6.00968 49.6317 5.8518 49.6622 5.67995L49.6615 5.6796ZM48.8398 4.42716C49.1256 4.68404 49.3058 5.03788 49.3455 5.42008C49.2444 5.80811 48.903 6.09218 48.3214 6.27227L47.55 6.46538C47.2911 6.52116 47.0374 6.59893 46.7917 6.69785C46.6653 6.69785 46.5386 6.59514 46.3866 6.37499C46.3358 6.28876 46.2548 6.22446 46.1593 6.19455C46.0745 6.20173 45.9925 6.22832 45.9196 6.27227L45.6159 6.38868L45.1985 6.37533L45.6515 5.16294C45.7893 4.76564 45.9036 4.36059 45.9939 3.94988C46.3018 4.03885 46.622 4.07804 46.9423 4.06595L47.9664 4.10463C48.283 4.12339 48.5868 4.23576 48.8395 4.4275L48.8398 4.42716Z" fill="black"/>
<path d="M49.1555 3.8725C48.9167 3.66135 48.6342 3.50558 48.3282 3.41632C48.0222 3.32707 47.7002 3.30653 47.3854 3.35618L46.324 3.23977C46.0058 3.19048 45.6823 3.1861 45.3629 3.22676C45.4594 3.84599 45.385 4.47979 45.1479 5.05989L44.4778 6.71223C44.3191 6.99924 44.274 7.33543 44.3515 7.65413L44.6045 8.51934H44.8575V7.74487C44.8559 7.72149 44.8626 7.6983 44.8766 7.67947C44.8905 7.66063 44.9107 7.6474 44.9335 7.64215L45.1106 7.61647C45.7266 7.39817 46.3616 7.2377 47.0074 7.13713C47.6627 7.04388 48.3013 6.85733 48.9038 6.58315C49.0906 6.44933 49.2642 6.298 49.4222 6.13121C49.5476 6.00963 49.6315 5.8516 49.6619 5.6796C49.7387 5.36024 49.7325 5.02653 49.6439 4.71022C49.5554 4.39391 49.3873 4.10552 49.1558 3.8725" stroke="black" stroke-width="2" stroke-miterlimit="2.613" stroke-linecap="round" stroke-linejoin="round"/>
<path d="M58.4589 3.68282L58.4206 3.30859H58.0408C57.5587 3.68649 57.0518 4.03159 56.5234 4.34157C55.4233 4.79317 54.9176 5.2708 55.0059 5.76144C55.0495 5.86457 55.117 5.95588 55.2028 6.02785C55.2885 6.09981 55.3902 6.15038 55.4993 6.17538L56.2834 6.20106L57.1938 6.11067L58.0405 6.1497C58.067 6.14943 58.0933 6.15506 58.1174 6.1662C58.1415 6.17733 58.1629 6.19368 58.1799 6.21407L58.2939 6.40786C58.3166 6.4565 58.3272 6.50989 58.325 6.56352C58.3227 6.61715 58.3076 6.66945 58.2808 6.716L58.1671 6.92143C57.502 7.443 56.7212 7.79715 55.8907 7.95407C55.7448 8.08852 55.6545 8.27271 55.6376 8.47038C55.9174 8.24839 56.229 8.06994 56.5621 7.94106L57.6371 7.55382C57.9692 7.42861 58.2808 7.25459 58.5616 7.0375C58.83 6.81161 59.0055 6.49462 59.0546 6.1473C58.6207 5.92894 58.1348 5.83508 57.6509 5.87613L56.1444 5.88915C56.0902 5.85617 56.047 5.80802 56.0201 5.75068C55.9931 5.69333 55.9836 5.62933 55.9927 5.56662L56.0177 5.24409C56.6868 4.67215 57.4595 4.23396 58.2939 3.9533C58.3466 3.93165 58.391 3.89374 58.4207 3.84509C58.4504 3.79645 58.4637 3.7396 58.4589 3.68282Z" fill="black"/>
<path d="M58.4205 3.30933H58.0408C57.5587 3.6872 57.0517 4.0323 56.5234 4.3423C55.4233 4.79391 54.9176 5.27153 55.0059 5.76217C55.0496 5.86507 55.1171 5.95615 55.2028 6.02793C55.2885 6.09971 55.39 6.15014 55.499 6.17509L56.283 6.20076L57.1934 6.11037L58.0401 6.14941C58.0667 6.14916 58.0929 6.15481 58.117 6.16594C58.1411 6.17707 58.1625 6.19341 58.1795 6.21378L58.2935 6.40756C58.3162 6.4562 58.3269 6.50959 58.3246 6.56323C58.3224 6.61686 58.3072 6.66916 58.2805 6.71571L58.1668 6.92114C57.5017 7.44275 56.7209 7.7969 55.8903 7.95377C55.7444 8.08822 55.6542 8.27242 55.6373 8.47009C55.917 8.24812 56.2287 8.06966 56.5617 7.94076L57.6368 7.55353C57.9689 7.42833 58.2805 7.25431 58.5612 7.03721C58.8296 6.81133 59.0052 6.49434 59.0543 6.14701C58.6204 5.92865 58.1345 5.83479 57.6505 5.87584L56.144 5.88885C56.0899 5.85588 56.0467 5.80773 56.0197 5.75039C55.9927 5.69304 55.9832 5.62904 55.9923 5.56633L56.0177 5.2438C56.6868 4.67175 57.4595 4.23344 58.2938 3.95267C58.3464 3.93072 58.3906 3.89269 58.4202 3.84403C58.4498 3.79538 58.4632 3.7386 58.4585 3.68184L58.4202 3.30762" stroke="black" stroke-width="2" stroke-miterlimit="2.613" stroke-linecap="round" stroke-linejoin="round"/>
<path d="M20.6855 4.44643C20.8467 3.95014 20.8728 3.41988 20.7611 2.91016H20.5081C20.2554 3.94313 19.9644 5.49173 19.623 7.55734C19.623 7.64739 19.7494 7.68608 20.0024 7.68608C20.0426 7.38237 20.0509 7.0753 20.0274 6.76985C20.0091 6.46939 20.0439 6.16805 20.1301 5.87966L20.6868 4.44678L20.6855 4.44643Z" fill="black"/>
<path d="M20.7611 2.91016H20.5081C20.2554 3.94313 19.9644 5.49173 19.623 7.55734C19.623 7.64739 19.7494 7.68608 20.0024 7.68608C20.0426 7.38237 20.0509 7.0753 20.0274 6.76985C20.0091 6.46939 20.0439 6.16806 20.1301 5.87966L20.6865 4.44678C20.8477 3.95049 20.8738 3.42022 20.7622 2.9105" stroke="black" stroke-width="2" stroke-miterlimit="2.613" stroke-linecap="round" stroke-linejoin="round"/>
<path d="M13.1432 2.84341C12.8601 2.77876 12.5661 2.77876 12.2831 2.84341C12.0219 3.05851 11.7212 3.22073 11.398 3.32103C11.2447 3.36988 11.0807 3.37523 10.9245 3.33648C10.7682 3.29774 10.6258 3.21642 10.513 3.10156L10.3866 3.61788C10.2223 4.26327 10.0073 5.21853 9.75426 6.45796C9.50123 7.7104 9.29922 8.6523 9.12221 9.29769C9.0344 9.73092 9.0784 10.1805 9.24855 10.5885L9.31155 9.49285C9.34956 9.04056 9.37455 8.67901 9.42557 8.39551C9.48742 7.71499 9.78227 7.07668 10.2603 6.58841C10.4138 6.49951 10.584 6.44328 10.7602 6.42324C10.9364 6.40321 11.1149 6.41981 11.2844 6.472C11.6679 6.56858 12.0437 6.69355 12.4088 6.84588C13.3332 7.22011 14.0909 7.31084 14.6849 7.10404V6.84588C14.2552 6.83297 13.8295 6.75907 13.4205 6.62641L12.1561 6.20049L11.9791 5.94233C11.9356 5.86268 11.9097 5.77466 11.9031 5.68417C12.0557 5.4224 12.2734 5.20456 12.5351 5.05178L13.3695 4.56149C13.6053 4.43166 13.8053 4.24546 13.9515 4.0195C13.9982 3.88656 14.0088 3.74361 13.9822 3.60525C13.9555 3.46689 13.8926 3.33809 13.7999 3.23201C13.6384 3.02369 13.4033 2.88503 13.1428 2.84443L13.1432 2.84341ZM12.9785 3.99211C12.7714 4.24026 12.5381 4.46536 12.2828 4.66352C12.017 4.89409 11.7289 5.09756 11.4227 5.27091C11.2306 5.4057 10.9995 5.47366 10.765 5.46436C10.7521 5.19037 10.7819 4.91604 10.8533 4.6512C10.9439 4.39416 11.1295 4.1816 11.372 4.05716C11.6498 3.90553 11.9369 3.77185 12.2317 3.65691C12.6868 3.48914 12.9908 3.46346 13.1295 3.57953C13.2062 3.64356 13.1558 3.77264 12.9785 3.99211Z" fill="black"/>
<path d="M12.2831 2.84341C12.0219 3.05852 11.7213 3.22074 11.398 3.32103C11.2447 3.36988 11.0807 3.37523 10.9245 3.33649C10.7682 3.29774 10.6258 3.21642 10.513 3.10156L10.3866 3.61788C10.2223 4.26327 10.0073 5.21853 9.75426 6.45796C9.50123 7.7104 9.29922 8.6523 9.12221 9.29769C9.0344 9.73091 9.0784 10.1805 9.24855 10.5885L9.31155 9.49285C9.34956 9.04056 9.37455 8.679 9.42557 8.39551C9.48739 7.71499 9.78225 7.07667 10.2603 6.58841C10.4138 6.49949 10.5839 6.44325 10.7602 6.42321C10.9364 6.40318 11.1149 6.41979 11.2844 6.47199C11.6685 6.56837 12.0449 6.69323 12.4105 6.84554C13.3349 7.21976 14.0926 7.31049 14.6866 7.10369V6.84554C14.2568 6.83265 13.8309 6.75876 13.4219 6.62607L12.1575 6.20014L11.9804 5.94198C11.937 5.86234 11.9111 5.77431 11.9044 5.68383C12.0571 5.42207 12.2748 5.20422 12.5365 5.05144L13.3692 4.56012C13.605 4.43031 13.8049 4.2441 13.9512 4.01813C13.9979 3.88519 14.0085 3.74224 13.9818 3.60388C13.9552 3.46552 13.8923 3.33672 13.7995 3.23064C13.6376 3.02249 13.4024 2.88398 13.1418 2.84341C12.8588 2.77876 12.5648 2.77876 12.2817 2.84341" stroke="black" stroke-width="2" stroke-miterlimit="2.613" stroke-linecap="round" stroke-linejoin="round"/>
<path d="M4.0787 2.30845C4.40329 2.1898 4.73741 2.09908 5.07744 2.03729C5.15345 2.03729 5.24178 1.97292 5.31711 1.84384C5.40578 1.71476 5.36778 1.65039 5.19077 1.65039C4.75168 1.5236 4.2845 1.53267 3.85067 1.67641C3.45178 1.78556 3.08934 1.9994 2.80092 2.29579C2.65169 2.40834 2.52663 2.54976 2.43316 2.71163C2.3397 2.8735 2.27975 3.05252 2.25687 3.23803L2.11787 3.87041C2.068 4.08228 2.00043 4.28958 1.91586 4.49013L1.62483 4.89003C1.56897 4.95979 1.53156 5.04249 1.51606 5.13051C1.50057 5.21853 1.50748 5.30903 1.53616 5.39368C1.62711 5.50137 1.67244 5.64031 1.6625 5.78092C1.7148 6.1656 1.72811 6.55458 1.70221 6.94194C1.68954 7.22646 1.63921 7.6137 1.57587 8.11666L1.4242 9.31775C1.38501 9.72946 1.37654 10.1435 1.39886 10.5565L1.74124 8.23307C1.84418 7.45166 1.98772 6.67614 2.17128 5.90965C2.17128 5.79359 2.25996 5.67752 2.44964 5.56111C2.59641 5.4733 2.75948 5.41622 2.92898 5.39334C3.19489 5.34899 3.45701 5.28432 3.71304 5.19989L4.44642 4.89174C4.73745 4.76301 4.97746 4.67262 5.16543 4.60791L5.38045 4.55621L2.92726 4.74966C2.85979 4.74807 2.7934 4.73232 2.73241 4.70341C2.67142 4.67451 2.61719 4.63311 2.57324 4.58189C2.52559 4.53677 2.48756 4.48249 2.46143 4.42229C2.43531 4.3621 2.42163 4.29724 2.42122 4.23163C2.52522 3.65455 2.78849 3.11803 3.18131 2.68268L4.0787 2.30845Z" fill="black"/>
<path d="M5.38132 4.55484L2.92814 4.74829C2.86067 4.74668 2.79429 4.73092 2.7333 4.70201C2.67231 4.67311 2.61808 4.63172 2.57411 4.58052C2.52693 4.53547 2.48929 4.48141 2.46341 4.42153C2.43753 4.36166 2.42395 4.2972 2.42346 4.23197C2.52678 3.65514 2.78921 3.11866 3.18116 2.68302L4.07923 2.30845C4.40382 2.1898 4.73795 2.09908 5.07797 2.03729C5.15398 2.03729 5.24231 1.97292 5.31764 1.84384C5.40632 1.71476 5.36831 1.65039 5.1913 1.65039C4.75222 1.5236 4.28504 1.53267 3.85121 1.67641C3.45182 1.78533 3.08889 1.9992 2.80009 2.29579C2.65087 2.40835 2.52582 2.54978 2.43235 2.71164C2.33889 2.87351 2.27893 3.05252 2.25604 3.23803L2.11874 3.87041C2.06888 4.08228 2.00131 4.28958 1.91674 4.49013L1.62571 4.89003C1.56984 4.95979 1.53244 5.04249 1.51694 5.13051C1.50144 5.21853 1.50835 5.30903 1.53703 5.39368C1.62799 5.50137 1.67332 5.64031 1.66337 5.78092C1.71513 6.16577 1.72786 6.55487 1.70138 6.94228C1.68871 7.22681 1.63838 7.61404 1.57504 8.11701L1.42336 9.31809C1.38357 9.72976 1.37453 10.1438 1.39631 10.5568L1.7387 8.23342C1.84163 7.45201 1.98517 6.67648 2.16873 5.91C2.16873 5.79393 2.25741 5.67786 2.44709 5.56111C2.59386 5.4733 2.75693 5.41622 2.92643 5.39334C3.19233 5.34896 3.45445 5.28429 3.71049 5.19989L4.44387 4.89174C4.7349 4.76301 4.97491 4.67262 5.16288 4.60791L5.3779 4.55621L5.94728 4.49184" stroke="black" stroke-width="2" stroke-miterlimit="2.613" stroke-linecap="round" stroke-linejoin="round"/>
</svg>
