<svg width="54" height="13" viewBox="0 0 54 13" fill="none" xmlns="http://www.w3.org/2000/svg">
<path d="M34.1967 7.91228C33.8662 7.91235 33.5432 7.81444 33.2685 7.63092C32.9937 7.44741 32.7796 7.18653 32.6531 6.8813C32.5266 6.57606 32.4935 6.24017 32.5579 5.9161C32.6223 5.59204 32.7814 5.29435 33.015 5.06069C33.2486 4.82704 33.5462 4.6679 33.8703 4.60342C34.1943 4.53894 34.5302 4.572 34.8355 4.69842C35.1408 4.82485 35.4017 5.03896 35.5852 5.31368C35.7688 5.5884 35.8668 5.91138 35.8668 6.24179C35.8663 6.68461 35.6901 7.10914 35.377 7.42229C35.064 7.73544 34.6395 7.91165 34.1967 7.91228ZM34.1967 3.57838C33.6698 3.57831 33.1548 3.73448 32.7167 4.02714C32.2786 4.31979 31.9371 4.73579 31.7354 5.22252C31.5338 5.70925 31.481 6.24485 31.5837 6.76159C31.6864 7.27833 31.9401 7.753 32.3126 8.12557C32.6851 8.49813 33.1598 8.75187 33.6765 8.85467C34.1932 8.95748 34.7288 8.90475 35.2156 8.70315C35.7024 8.50155 36.1184 8.16013 36.4111 7.72207C36.7038 7.28401 36.8601 6.76899 36.8601 6.24213C36.8602 5.89231 36.7914 5.5459 36.6576 5.22268C36.5238 4.89946 36.3276 4.60577 36.0803 4.3584C35.8329 4.11102 35.5393 3.91481 35.2161 3.78097C34.8929 3.64713 34.5465 3.57829 34.1967 3.57838ZM30.9371 8.04752H31.1539V9.04968H30.9371C30.3845 9.04797 29.8551 8.82771 29.4643 8.43699C29.0735 8.04627 28.8532 7.51682 28.8513 6.96422V2.38654H29.8535V3.72184H31.1446V4.724H29.8538V6.9721C29.8565 7.25775 29.9718 7.5308 30.1747 7.73196C30.3775 7.93312 30.6515 8.04615 30.9371 8.0465M43.1438 7.90954C42.8134 7.90954 42.4905 7.81157 42.2158 7.62802C41.9411 7.44446 41.7269 7.18356 41.6005 6.87832C41.4741 6.57308 41.441 6.2372 41.5054 5.91315C41.5699 5.58911 41.729 5.29146 41.9626 5.05783C42.1962 4.82421 42.4939 4.66511 42.8179 4.60066C43.142 4.5362 43.4779 4.56928 43.7831 4.69572C44.0883 4.82215 44.3492 5.03626 44.5328 5.31097C44.7164 5.58569 44.8143 5.90866 44.8143 6.23905C44.8139 6.68195 44.6377 7.10659 44.3246 7.41977C44.0114 7.73295 43.5867 7.90909 43.1438 7.90954ZM43.1438 3.57564C42.617 3.57557 42.1019 3.73174 41.6638 4.0244C41.2257 4.31705 40.8843 4.73305 40.6826 5.21978C40.4809 5.70651 40.4281 6.24212 40.5309 6.75886C40.6336 7.27559 40.8873 7.75026 41.2598 8.12283C41.6323 8.49539 42.107 8.74913 42.6237 8.85193C43.1404 8.95474 43.676 8.90201 44.1628 8.70041C44.6495 8.49881 45.0656 8.15739 45.3583 7.71933C45.651 7.28127 45.8072 6.76625 45.8072 6.23939C45.8074 5.88958 45.7386 5.54316 45.6048 5.21994C45.471 4.89672 45.2748 4.60303 45.0275 4.35566C44.7801 4.10828 44.4865 3.91207 44.1633 3.77823C43.8401 3.64439 43.4937 3.57555 43.1438 3.57564ZM50.8102 7.91228C50.4798 7.91235 50.1568 7.81444 49.882 7.63092C49.6072 7.44741 49.3931 7.18653 49.2666 6.8813C49.1401 6.57606 49.107 6.24017 49.1714 5.9161C49.2358 5.59204 49.3949 5.29435 49.6285 5.06069C49.8621 4.82704 50.1597 4.6679 50.4838 4.60342C50.8079 4.53894 51.1438 4.572 51.449 4.69842C51.7543 4.82485 52.0152 5.03896 52.1988 5.31368C52.3823 5.5884 52.4803 5.91138 52.4803 6.24179C52.4798 6.68461 52.3036 7.10914 51.9906 7.42229C51.6775 7.73544 51.253 7.91165 50.8102 7.91228ZM50.8102 3.57838C50.3817 3.5774 49.9593 3.67981 49.5788 3.87691C49.1983 4.07402 48.871 4.36 48.6246 4.7106C48.3782 5.06119 48.2201 5.46605 48.1636 5.89081C48.1071 6.31557 48.1539 6.74769 48.3 7.15051C48.4461 7.55333 48.6873 7.91495 49.003 8.20468C49.3187 8.49441 49.6996 8.70371 50.1135 8.8148C50.5273 8.92589 50.9619 8.9355 51.3802 8.84282C51.7986 8.75013 52.1884 8.55789 52.5166 8.2824V8.80625H53.4736V6.24179C53.4722 5.53583 53.1912 4.85917 52.692 4.35997C52.1928 3.86078 51.5161 3.57974 50.8102 3.57838ZM39.6142 3.57838H40.0935V4.58054H39.6142C39.3272 4.58153 39.0522 4.69599 38.8493 4.89893C38.6463 5.10187 38.5319 5.37684 38.5309 5.66385V8.8422H37.5287V5.66419C37.5304 5.11158 37.7507 4.5821 38.1414 4.19132C38.5321 3.80053 39.0616 3.58019 39.6142 3.57838ZM46.4763 2.25096H47.4784V8.82474H46.4763V2.25096ZM22.1868 5.79943V8.96854H21.186V5.79943C21.186 5.51207 21.0719 5.23649 20.8687 5.0333C20.6655 4.83011 20.3899 4.71595 20.1026 4.71595C19.8152 4.71595 19.5396 4.83011 19.3364 5.0333C19.1332 5.23649 19.0191 5.51207 19.0191 5.79943V8.96854H18.0169V5.79943C18.0169 5.51207 17.9028 5.23649 17.6996 5.0333C17.4964 4.83011 17.2208 4.71595 16.9335 4.71595C16.6461 4.71595 16.3705 4.83011 16.1673 5.0333C15.9641 5.23649 15.85 5.51207 15.85 5.79943V8.96854H14.8482V5.79943C14.8472 5.37325 14.9771 4.95706 15.2204 4.6071C15.4636 4.25713 15.8083 3.99026 16.2081 3.84255C16.6079 3.69483 17.0433 3.67339 17.4557 3.78113C17.868 3.88886 18.2373 4.12057 18.5137 4.44496C18.7913 4.1217 19.1611 3.89107 19.5735 3.78401C19.9859 3.67694 20.4211 3.69857 20.8209 3.84598C21.2206 3.99339 21.5658 4.25953 21.8099 4.6087C22.0541 4.95787 22.1856 5.37336 22.1868 5.79943ZM25.5275 8.04787C25.1971 8.04787 24.8741 7.94989 24.5994 7.76634C24.3247 7.58278 24.1106 7.32189 23.9841 7.01664C23.8577 6.7114 23.8246 6.37552 23.8891 6.05148C23.9535 5.72743 24.1126 5.42978 24.3463 5.19616C24.5799 4.96253 24.8775 4.80343 25.2016 4.73898C25.5256 4.67452 25.8615 4.7076 26.1667 4.83404C26.472 4.96047 26.7329 5.17459 26.9164 5.4493C27.1 5.72401 27.198 6.04698 27.198 6.37737C27.1974 6.82025 27.0213 7.24483 26.7081 7.55799C26.3949 7.87115 25.9704 8.04732 25.5275 8.04787ZM25.5275 3.71397C25.0003 3.7122 24.4845 3.86691 24.0453 4.1585C23.6062 4.45008 23.2634 4.86543 23.0605 5.35195C22.8575 5.83846 22.8035 6.37427 22.9053 6.8915C23.007 7.40874 23.26 7.88414 23.6321 8.25752C24.0042 8.63089 24.4788 8.88544 24.9957 8.98894C25.5126 9.09243 26.0486 9.04021 26.5357 8.83888C27.0229 8.63756 27.4394 8.29619 27.7325 7.85801C28.0255 7.41982 28.182 6.90452 28.182 6.37737C28.1816 5.67264 27.9021 4.99675 27.4046 4.4976C26.9072 3.99845 26.2322 3.71668 25.5275 3.71397ZM6.64053 0.328127C5.44225 0.328127 4.27089 0.68346 3.27457 1.34919C2.27825 2.01492 1.50172 2.96115 1.04318 4.06821C0.584634 5.17528 0.464675 6.39346 0.698471 7.5687C0.932267 8.74394 1.50932 9.82346 2.35665 10.6707C3.20398 11.518 4.28353 12.095 5.45878 12.3287C6.63404 12.5625 7.85221 12.4424 8.95925 11.9838C10.0663 11.5252 11.0125 10.7486 11.6781 9.75229C12.3438 8.75593 12.6991 7.58455 12.699 6.38628C12.6996 5.59052 12.5433 4.80245 12.239 4.06715C11.9348 3.33186 11.4885 2.66376 10.9258 2.10109C10.3631 1.53842 9.69499 1.09221 8.95968 0.787986C8.22436 0.483763 7.43629 0.327497 6.64053 0.328127Z" fill="black"/>
</svg>
