<svg width="45" height="45" viewBox="0 0 45 45" fill="none" xmlns="http://www.w3.org/2000/svg">
<rect width="45" height="45" fill="#0C487B"/>
<path d="M15.9505 15.2276C15.9505 14.6543 16.4153 14.1895 16.9886 14.1895H30.4845C31.0578 14.1895 31.5226 14.6543 31.5226 15.2276C31.5226 15.8009 31.0578 16.2657 30.4845 16.2657H16.9886C16.4153 16.2657 15.9505 15.8009 15.9505 15.2276ZM30.4845 20.4183H11.7979C11.2246 20.4183 10.7598 20.8832 10.7598 21.4564C10.7598 22.0298 11.2246 22.4946 11.7979 22.4946H30.4845C31.0578 22.4946 31.5226 22.0298 31.5226 21.4564C31.5226 20.8832 31.0578 20.4183 30.4845 20.4183ZM30.4845 26.6472H21.1412C20.5679 26.6472 20.103 27.112 20.103 27.6853C20.103 28.2586 20.5679 28.7234 21.1412 28.7234H30.4845C31.0578 28.7234 31.5226 28.2586 31.5226 27.6853C31.5226 27.112 31.0578 26.6472 30.4845 26.6472Z" fill="white"/>
</svg>
