<svg width="8" height="8" viewBox="0 0 8 8" fill="none" xmlns="http://www.w3.org/2000/svg">
<path d="M6.86235 2.76651L2.21655 0.131084C2.06483 0.0439046 1.89285 -0.00131359 1.7181 2.90514e-05C1.54336 0.00137169 1.37209 0.0492273 1.22171 0.138728C1.0752 0.222977 0.953487 0.344714 0.868922 0.491574C0.784357 0.638433 0.739958 0.805181 0.740236 0.974878V6.24573C0.739958 6.41543 0.784357 6.58217 0.868922 6.72903C0.953487 6.87589 1.0752 6.99763 1.22171 7.08188C1.3721 7.17134 1.54337 7.21917 1.7181 7.22051C1.89284 7.22185 2.06481 7.17666 2.21655 7.08952L6.86235 4.4541C7.01219 4.37064 7.13707 4.24837 7.22402 4.09999C7.31098 3.95161 7.35684 3.78253 7.35684 3.6103C7.35684 3.43808 7.31098 3.26899 7.22402 3.12061C7.13707 2.97223 7.01219 2.84996 6.86235 2.76651Z" fill="#171717"/>
</svg>
