<svg width="50" height="50" viewBox="0 0 50 50" fill="none" xmlns="http://www.w3.org/2000/svg">
<rect width="50" height="49.4186" rx="10" fill="#0C487B"/>
<path d="M30.1491 15.9586C30.1491 17.3433 29.6736 18.5034 28.7278 19.4544C27.782 20.4001 26.6168 20.8756 25.2321 20.8756C23.8526 20.8756 22.6874 20.4001 21.7416 19.4544C20.7958 18.5086 20.3203 17.3433 20.3203 15.9586C20.3203 14.5739 20.7958 13.4139 21.7416 12.4629C22.6874 11.5119 23.8578 11.0469 25.2373 11.0469C26.622 11.0469 27.782 11.5224 28.733 12.4682C29.684 13.4139 30.1543 14.5792 30.1491 15.9586Z" fill="white"/>
<path d="M36.6292 21.1529V32.4604C36.6292 33.0822 36.1485 33.5943 35.5319 33.6361C33.8337 33.7563 32.1616 34.143 30.5835 34.7805C28.8905 35.4597 27.3073 36.3898 25.886 37.5394C25.4523 37.8843 24.8409 37.8843 24.4072 37.5394C22.986 36.3898 21.4027 35.4597 19.7097 34.7805C18.1317 34.143 16.4596 33.7563 14.7614 33.6361C14.1448 33.5943 13.6641 33.077 13.6641 32.4604V21.1529C13.6693 20.4998 14.197 19.972 14.8502 19.972C14.892 19.972 14.9286 19.972 14.9704 19.9772C16.5275 20.134 18.0742 20.5677 19.6157 21.2835C21.5804 22.198 23.4301 23.4729 25.1492 25.1137C26.8736 23.4782 28.7181 22.198 30.6828 21.2835C32.219 20.5677 33.771 20.134 35.3281 19.9772C35.976 19.9093 36.5613 20.3796 36.6292 21.0327C36.624 21.0745 36.6292 21.1163 36.6292 21.1529Z" fill="white"/>
</svg>
