<svg width="50" height="50" viewBox="0 0 50 50" fill="none" xmlns="http://www.w3.org/2000/svg">
<rect width="50" height="49.4186" rx="10" fill="#0C487B"/>
<path d="M31.5442 17.2415C31.8984 18.0044 32.1624 18.8059 32.331 19.6299C33.6117 20.3254 34.7125 21.3101 35.5458 22.5058C36.379 23.7015 36.9218 25.0751 37.1309 26.5174C37.3399 27.9597 37.2096 29.4309 36.7501 30.814C36.2907 32.1971 35.5149 33.4538 34.4843 34.4843C33.4538 35.5149 32.1971 36.2907 30.814 36.7501C29.4309 37.2096 27.9597 37.3399 26.5174 37.1309C25.0751 36.9218 23.7015 36.379 22.5058 35.5458C21.3101 34.7125 20.3254 33.6117 19.6299 32.331C18.8059 32.1624 18.0044 31.8984 17.2415 31.5442C17.8656 33.3434 18.9366 34.9545 20.354 36.2263C21.7714 37.4982 23.4887 38.389 25.3447 38.8153C27.2007 39.2416 29.1346 39.1893 30.9649 38.6633C32.7952 38.1374 34.4618 37.155 35.8084 35.8084C37.155 34.4618 38.1374 32.7952 38.6633 30.9649C39.1893 29.1346 39.2416 27.2007 38.8153 25.3447C38.389 23.4887 37.4982 21.7714 36.2263 20.354C34.9545 18.9366 33.3434 17.8656 31.5442 17.2415ZM27.8632 16.6233C29.1162 16.6204 30.3608 16.8294 31.5442 17.2415C30.8151 15.6685 29.7171 14.2948 28.3434 13.2371C26.9698 12.1793 25.3611 11.4688 23.6541 11.1658C21.947 10.8628 20.1921 10.9763 18.5383 11.4967C16.8846 12.0171 15.3808 12.929 14.1549 14.1549C12.929 15.3808 12.0171 16.8846 11.4967 18.5383C10.9763 20.1921 10.8628 21.947 11.1658 23.6541C11.4688 25.3611 12.1793 26.9698 13.2371 28.3434C14.2948 29.7171 15.6685 30.8151 17.2415 31.5442C16.8294 30.3608 16.6204 29.1162 16.6233 27.8632C16.6233 24.8821 17.8075 22.0232 19.9153 19.9153C22.0232 17.8075 24.8821 16.6233 27.8632 16.6233Z" fill="white"/>
<path d="M18.4961 27.8636C18.4958 29.424 18.8854 30.9598 19.6295 32.3314C21.3728 32.6858 23.1767 32.6028 24.8802 32.0899C26.5836 31.577 28.1335 30.6502 29.3914 29.3923C30.6493 28.1344 31.5761 26.5845 32.089 24.8811C32.6019 23.1776 32.6848 21.3737 32.3305 19.6304C30.9038 18.856 29.3003 18.4658 27.6773 18.4979C26.0543 18.5301 24.4675 18.9835 23.0725 19.8136C21.6775 20.6438 20.5222 21.8223 19.72 23.2335C18.9177 24.6448 18.4959 26.2403 18.4961 27.8636Z" fill="white"/>
</svg>
